# Blender 4.5.1 LTS
# www.blender.org
mtllib 3D Hub.mtl
o Hub.001
v 7.274791 4.581311 -0.456474
v 10.310522 4.581311 -0.499378
v 10.367538 4.581311 3.660489
v 7.292706 4.581311 1.583631
v 7.317121 4.581311 3.703239
v 7.274791 4.581311 -0.834026
v 6.897238 4.581311 -0.834027
v 3.650277 4.581311 -9.725934
v 10.096620 4.581311 -6.102612
v 10.304761 4.581311 -5.985621
v 10.303321 4.581311 -0.876862
v 1.528581 4.581311 -6.662651
v 1.528580 4.581311 -4.341461
v 1.586292 4.596502 -0.764530
v 3.321151 4.581311 -9.910927
v -7.417191 4.581311 -9.186633
v -7.316076 4.581311 0.547582
v -4.545874 4.581311 0.519519
v -4.923395 4.581311 0.524292
v 1.151029 4.581311 -6.662651
v 1.151033 4.581311 -4.343439
v 1.208781 4.596502 -0.758894
v -0.268790 4.596502 0.263062
v -2.847052 4.581311 0.491325
v 6.897238 4.581311 -0.456474
v -0.238416 4.581311 3.813411
v 0.139016 4.581311 3.803839
v 1.365605 4.596502 -0.354778
v 1.591928 4.596502 -0.387020
v -0.317219 4.596502 0.744892
v -0.062985 4.596502 0.579590
v 6.915154 4.581311 1.583631
v -0.257340 4.581311 1.953802
v -0.302457 4.592757 1.042938
v 6.939644 4.581311 3.708530
v -4.541101 4.581311 0.897041
v -1.946788 4.581311 6.241200
v -2.131781 4.581311 6.570325
v -2.838881 4.581311 0.868789
v -4.511812 4.581311 2.790562
v -4.513824 4.581311 2.413015
v -4.883473 4.581311 2.792542
v -4.959879 4.581311 2.792950
v -4.908432 4.581311 6.586667
v -2.633153 4.581311 6.579959
v -3.010653 4.581311 6.586215
v -0.824541 4.581311 4.274907
v -0.634890 4.581311 1.955374
v -0.632543 4.592757 0.864675
v 3.506144 -0.001380 -10.240052
v 3.835270 -0.001380 -10.055060
v 10.281612 -0.001380 -6.431738
v 10.598397 -0.001380 -6.253682
v -7.433005 -0.001380 -9.563853
v -7.810226 -0.001380 -9.548042
v -7.794413 -0.001380 -9.170821
v -7.693613 -0.001380 0.551111
v -7.312549 -0.001380 0.925118
v -7.690085 -0.001380 0.928647
v -4.918622 -0.001380 0.901814
v 10.680806 -0.001380 -0.884063
v 10.688007 -0.001380 -0.506579
v 10.745024 -0.001380 3.653287
v 10.752225 -0.001380 4.030771
v 10.374740 -0.001380 4.037972
v -1.617662 -0.001380 6.426193
v -1.894809 -0.001380 6.919272
v -0.344726 -0.001380 4.193170
v -0.228844 -0.001380 4.190842
v 0.148587 -0.001380 4.181270
v -4.885483 -0.001380 2.414995
v -4.961890 -0.001380 2.415402
v -5.325632 -0.001380 2.417340
v -5.323620 -0.001380 2.794887
v -4.908432 -0.001380 6.586667
v -5.285949 -0.001380 6.591754
v -4.903345 -0.001380 6.964186
v -5.280862 -0.001380 6.969274
v -3.010653 -0.001380 6.586215
v -2.626898 -0.001380 6.957460
v -3.004398 -0.001380 6.963715
v -0.492518 -0.001380 4.441313
v 7.325029 -0.001380 4.080707
v 6.947639 -0.001380 4.085995
v 3.506144 4.742007 -10.240052
v 3.835270 4.742007 -10.055060
v 10.281612 4.742007 -6.431738
v 10.598397 4.742007 -6.253682
v -7.810226 4.742007 -9.548042
v -7.433005 4.742007 -9.563853
v -7.794413 4.742007 -9.170821
v -7.693613 4.742007 0.551111
v -7.312549 4.742007 0.925118
v -7.690085 4.742007 0.928647
v -4.918622 4.742007 0.901814
v 10.680806 4.742007 -0.884063
v 10.688007 4.742007 -0.506579
v 10.745024 4.742007 3.653287
v 10.752225 4.742007 4.030771
v 10.374740 4.742007 4.037972
v -1.617662 4.742007 6.426193
v -1.894809 4.742007 6.919272
v -0.344726 4.742007 4.193170
v -0.228844 4.742007 4.190842
v 0.148587 4.742007 4.181270
v -4.885483 4.742007 2.414995
v -4.961890 4.742007 2.415402
v -5.323620 4.742007 2.794887
v -5.325632 4.742007 2.417340
v -5.285949 4.742007 6.591754
v -4.908432 4.742007 6.586667
v -4.903345 4.742007 6.964186
v -5.280862 4.742007 6.969274
v -3.010653 4.742007 6.586215
v -2.626898 4.742007 6.957460
v -3.004398 4.742007 6.963715
v -0.492518 4.742007 4.441313
v 7.325029 4.742007 4.080707
v 6.947639 4.742007 4.085995
v 1.151029 3.344422 -6.662651
v 1.528581 3.344422 -6.662651
v 1.151033 3.344422 -4.343439
v 1.528580 3.344422 -4.341461
v 1.151029 -0.001380 -6.662651
v 1.528581 -0.001380 -6.662651
v 1.151033 -0.001380 -4.343439
v 1.528580 -0.001380 -4.341461
v 1.041378 2.974305 -6.259512
v 1.041378 -0.001380 -6.259512
v 1.638232 -0.001380 -6.662651
v 1.638232 2.974305 -6.258965
v 1.638232 -0.001380 -6.258965
v 1.041378 3.344422 -6.662651
v 1.638232 3.344422 -6.662651
v 1.041378 2.974305 -4.719524
v 1.041382 3.344422 -4.343438
v 1.638231 2.974305 -4.720470
v 1.638231 3.344422 -4.341461
v 1.041382 -0.001380 -4.343438
v 1.041378 -0.001380 -6.662651
v 1.041378 -0.001380 -4.719523
v 1.638231 -0.001380 -4.341461
v 1.638231 -0.001380 -4.720470
v 1.528581 3.344422 -6.258965
v 1.638232 3.344422 -6.258965
v 1.151030 3.344422 -6.259512
v 1.041379 3.344422 -6.259512
v 1.151033 3.344422 -4.719524
v 1.041382 3.344422 -4.719524
v 1.528581 3.344422 -4.720470
v 1.638231 3.344422 -4.720470
v 1.151029 2.974305 -6.662651
v 1.041378 2.974305 -6.662651
v 1.151033 2.974305 -4.343439
v 1.041382 2.974305 -4.343438
v 1.528580 2.974305 -4.341461
v 1.638231 2.974305 -4.341461
v 1.528581 2.974305 -6.662651
v 1.638232 2.974305 -6.662651
v -0.631775 2.989497 0.507785
v -0.631775 3.359614 0.507785
v -0.268790 3.359614 0.263062
v -2.847052 3.344422 0.491325
v -2.469587 2.974305 0.483155
v -2.469587 3.344422 0.483155
v -2.838881 3.344422 0.868789
v -2.461416 2.974305 0.860620
v -2.461416 3.344422 0.860620
v -0.631775 0.013811 0.507785
v -0.268790 0.013811 0.263062
v -2.469587 -0.001380 0.483155
v -2.847052 -0.001380 0.491325
v -2.461416 -0.001380 0.860620
v -2.838881 -0.001380 0.868789
v -0.632543 2.985752 0.864675
v -0.632543 3.355869 0.864675
v -0.632543 0.010066 0.864675
v -0.657825 2.989497 0.444909
v -0.669821 0.013811 0.451353
v -0.651309 3.359614 0.442590
v -0.306836 3.359614 0.206630
v -2.470269 2.974305 0.415099
v -2.848525 3.344422 0.423282
v -2.469863 3.344422 0.415096
v -2.460758 3.344422 0.928676
v -2.460483 2.974305 0.928672
v -2.837409 3.344422 0.936833
v -0.306836 0.013811 0.206630
v -2.471060 -0.001380 0.415112
v -2.848525 -0.001380 0.423282
v -2.837409 -0.001380 0.936833
v -2.459944 -0.001380 0.928663
v -0.632694 3.355869 0.932734
v -0.632694 2.985752 0.932734
v -0.268790 2.989497 0.263062
v -0.306836 2.989497 0.206630
v -2.847052 2.974305 0.491325
v -2.848525 2.974305 0.423282
v -2.838881 2.974305 0.868789
v -2.837409 2.974305 0.936833
v -0.592144 3.344422 3.813411
v -0.592144 2.974305 3.813411
v -0.238416 2.974305 3.813411
v -0.238416 3.344422 3.813411
v -0.842444 3.343083 4.266203
v -0.634890 3.344422 1.955374
v -0.257340 3.344422 1.953802
v -0.633318 2.974305 2.332923
v -0.633318 3.344422 2.332923
v -0.255768 2.974305 2.331350
v -0.255768 3.344422 2.331350
v -0.238416 -0.001380 3.813411
v -0.592144 -0.001380 3.813411
v -0.824541 -0.001380 4.274907
v -0.257340 -0.001380 1.953802
v -0.634890 -0.001380 1.955374
v -0.255768 -0.001380 2.331350
v -0.633318 -0.001380 2.332923
v -0.142525 -0.001380 1.953324
v -0.927088 -0.001380 4.223267
v -0.694690 -0.001380 3.761771
v -0.701405 2.973640 3.778146
v -0.703858 3.343765 3.786949
v -0.123608 2.974305 3.812067
v -0.123608 3.344422 3.812067
v -0.748132 -0.001380 2.333401
v -0.748125 2.974305 2.334306
v -0.749705 -0.001380 1.955852
v -0.932774 3.343765 4.215275
v -0.749705 3.343765 1.955852
v -0.142525 3.344422 1.953324
v -0.140955 2.974305 2.330584
v -0.140956 3.344422 2.330439
v -0.748119 3.343765 2.334758
v -0.140953 -0.001380 2.330873
v -0.257340 2.974305 1.953802
v -0.142525 2.974305 1.953324
v -0.634890 2.974890 1.955374
v -0.749705 2.974305 1.955852
v -0.840466 2.973687 4.267165
v -0.932146 2.974294 4.216158
v 6.915154 3.344422 1.583631
v 7.292706 3.344422 1.583631
v 6.915154 2.974305 1.961184
v 7.407191 3.344422 1.960619
v 7.292706 2.974305 1.961184
v 6.809368 3.344422 1.961648
v 7.292706 -0.001380 1.583631
v 6.915154 -0.001380 1.583631
v 7.292706 -0.001380 1.961184
v 6.915154 -0.001380 1.961184
v 7.317121 3.344422 3.703239
v 7.317121 2.974305 3.703239
v 7.317121 -0.001380 3.703239
v 6.939643 3.344422 3.708530
v 6.939644 2.974305 3.708530
v 6.939644 -0.001380 3.708530
v 6.805013 3.344422 1.583631
v 7.402847 3.344422 1.583631
v 7.402845 2.974305 1.960669
v 6.919508 3.344422 1.961374
v 7.297051 3.344422 1.960894
v 6.805014 2.974305 1.961698
v 7.402847 -0.001380 1.961184
v 7.402847 -0.001380 1.583631
v 6.805013 -0.001380 1.583631
v 6.805013 -0.001380 1.961184
v 7.427250 3.344422 3.701696
v 7.427251 2.974305 3.701696
v 6.829513 3.344422 3.710073
v 6.829514 2.974305 3.710073
v 6.915154 2.974305 1.583631
v 6.805013 2.974305 1.583631
v 7.292706 2.974305 1.583631
v 7.402847 2.974305 1.583631
v 6.897238 2.974305 -0.456474
v 6.897238 3.344422 -0.456474
v -0.238416 2.974305 3.813411
v -0.238416 3.344422 3.813411
v 0.139016 2.974305 3.803839
v 0.139016 3.344422 3.803839
v 1.365605 2.989497 -0.354778
v 1.365605 3.359614 -0.354778
v 1.591928 2.989497 -0.387020
v 1.591928 3.359614 -0.387020
v -0.317219 2.989497 0.744892
v -0.303462 3.359614 0.742351
v -0.062985 2.989497 0.579590
v -0.062985 3.359614 0.579590
v 6.915154 2.974305 1.583631
v 6.915154 3.344422 1.583631
v 6.915154 3.344422 1.961184
v -0.257340 2.974305 1.953802
v -0.257340 3.344422 1.953802
v -0.255768 3.344422 2.331350
v 6.897238 -0.001380 -0.456474
v -0.238416 -0.001380 3.813411
v 0.139016 -0.001380 3.803839
v 1.365605 0.013811 -0.354778
v 1.591928 0.013811 -0.387020
v -0.317219 0.013811 0.744892
v -0.062985 0.013811 0.579590
v 6.915154 -0.001380 1.583631
v -0.257340 -0.001380 1.953802
v -0.292091 3.355869 1.041023
v -0.302457 2.985752 1.042938
v -0.302457 0.010066 1.042938
v 6.939643 3.344422 3.708530
v 6.939644 2.974305 3.708530
v 6.939644 -0.001380 3.708530
v 6.897238 4.742006 -0.456474
v -0.238416 4.742006 3.813411
v 0.139016 4.742006 3.803839
v 1.365605 4.757198 -0.354778
v 1.591928 4.757198 -0.387020
v -0.303462 4.757198 0.742351
v -0.062985 4.757198 0.579590
v 6.939643 4.742006 3.708530
v 6.915154 4.742006 1.583631
v 6.915154 4.742006 1.961184
v -0.257340 4.742006 1.953802
v -0.255768 4.742006 2.331350
v -0.292091 4.753453 1.041023
v 6.897238 2.974305 -0.834027
v 6.897238 3.344422 -0.834027
v 7.274791 2.974305 -0.834026
v 7.274791 3.344422 -0.834026
v 3.650277 2.974305 -9.725934
v 3.650277 3.344422 -9.725934
v 10.096620 2.974305 -6.102612
v 10.096620 3.344422 -6.102612
v 10.304761 2.974305 -5.985621
v 10.304761 3.344422 -5.985621
v 10.303321 2.974305 -0.876862
v 10.303321 3.344422 -0.876862
v 1.528581 3.344422 -6.258965
v 1.528581 2.974305 -6.662651
v 1.528581 3.344422 -6.662651
v 1.528580 2.974305 -4.341461
v 1.528580 3.344422 -4.341461
v 1.528580 3.344422 -4.720470
v 1.586292 2.989497 -0.764530
v 1.586292 3.359614 -0.764530
v 7.274791 -0.001380 -0.834026
v 6.897238 -0.001380 -0.834027
v 3.650277 -0.001380 -9.725934
v 10.096620 -0.001380 -6.102612
v 10.304761 -0.001380 -5.985621
v 10.303321 -0.001380 -0.876862
v 1.528581 -0.001380 -6.662651
v 1.528580 -0.001380 -4.341461
v 1.586292 0.013811 -0.764530
v 6.897238 4.742006 -0.834027
v 7.274791 4.742006 -0.834026
v 3.650277 4.742006 -9.725934
v 10.096620 4.742006 -6.102612
v 10.304761 4.742006 -5.985621
v 10.303321 4.742006 -0.876862
v 1.528581 4.742006 -6.662651
v 1.528581 4.742006 -6.258965
v 1.528580 4.742006 -4.720470
v 1.528580 4.742006 -4.341461
v 1.586292 4.757198 -0.764530
v 3.321151 2.974305 -9.910927
v 3.321151 3.344422 -9.910927
v -7.417191 2.974305 -9.186633
v -7.417191 3.344422 -9.186633
v -7.316076 2.974305 0.547582
v -7.316076 3.344422 0.547582
v -4.923395 2.974305 0.524292
v -4.923395 3.344422 0.524292
v -4.545874 2.974305 0.519519
v -4.545874 3.344422 0.519519
v 1.151029 3.344422 -6.259512
v 1.151029 2.974305 -6.662651
v 1.151029 3.344422 -6.662651
v 1.151033 2.974305 -4.343439
v 1.151033 3.344422 -4.343439
v 1.151029 3.344422 -4.719524
v 1.208781 2.989497 -0.758894
v 1.208781 3.359614 -0.758894
v -0.631775 3.359614 0.507785
v -0.268790 2.989497 0.263062
v -0.268790 3.359614 0.263062
v -2.847052 2.974305 0.491325
v -2.847052 3.344422 0.491325
v -2.469587 3.344422 0.483155
v 3.321151 -0.001380 -9.910927
v -7.417191 -0.001380 -9.186633
v -7.316076 -0.001380 0.547582
v -4.545874 -0.001380 0.519519
v -4.923395 -0.001380 0.524292
v 1.151029 -0.001380 -6.662651
v 1.151033 -0.001380 -4.343439
v 1.208781 0.013811 -0.758894
v -0.268790 0.013811 0.263062
v -2.847052 -0.001380 0.491325
v 3.321151 4.742006 -9.910927
v -7.417191 4.742006 -9.186633
v -7.316076 4.742006 0.547582
v -4.923395 4.742006 0.524292
v -4.545874 4.742006 0.519519
v 1.151029 4.742006 -6.259512
v 1.151029 4.742006 -6.662651
v 1.151033 4.742006 -4.343439
v 1.151029 4.742006 -4.719524
v 1.208781 4.757198 -0.758894
v -0.631775 4.757198 0.507785
v -0.268790 4.757198 0.263062
v -2.847052 4.742006 0.491325
v -2.469587 4.742006 0.483155
v -0.592144 3.344422 3.813411
v -2.838881 3.344422 0.868789
v -2.461416 3.344422 0.860620
v -0.842444 3.343083 4.266203
v -0.634890 2.974305 1.955374
v -0.634890 3.344422 1.955374
v -0.633318 3.344422 2.332923
v -4.541101 -0.001380 0.897041
v -1.946788 -0.001380 6.241200
v -2.131781 -0.001380 6.570325
v -2.838881 -0.001380 0.868789
v -4.511812 -0.001380 2.790562
v -4.513824 -0.001380 2.413015
v -4.883473 -0.001380 2.792542
v -4.959879 -0.001380 2.792950
v -4.908432 -0.001380 6.586667
v -2.633153 -0.001380 6.579959
v -3.010653 -0.001380 6.586215
v -0.824541 -0.001380 4.274907
v -0.634890 -0.001380 1.955374
v -0.632543 2.985752 0.864675
v -0.632543 3.355869 0.864675
v -0.632543 0.010066 0.864675
v -4.541101 4.742006 0.897041
v -2.131781 4.742006 6.570325
v -1.946788 4.742006 6.241200
v -0.592144 4.742006 3.813411
v -2.461416 4.742006 0.860620
v -2.838881 4.742006 0.868789
v -4.513824 4.742006 2.413015
v -4.511812 4.742006 2.790562
v -4.883473 4.742006 2.792542
v -4.959879 4.742006 2.792950
v -4.908432 4.742006 6.586667
v -3.010653 4.742006 6.586215
v -2.633153 4.742006 6.579959
v -0.848095 4.742006 4.260775
v -0.634890 4.742006 1.955374
v -0.633318 4.742006 2.332923
v -0.632543 4.753452 0.864675
v 7.274791 2.974305 -0.456474
v 7.274791 3.344422 -0.456474
v 10.310522 2.974305 -0.499378
v 10.310522 3.344422 -0.499378
v 10.367538 2.974305 3.660489
v 10.367538 3.344422 3.660489
v 7.292706 2.974305 1.583631
v 7.292706 3.344422 1.583631
v 7.292706 3.344422 1.961184
v 7.274791 -0.001380 -0.456474
v 10.310522 -0.001380 -0.499378
v 10.367538 -0.001380 3.660489
v 7.292706 -0.001380 1.583631
v 7.317121 3.344422 3.703239
v 7.317121 2.974305 3.703239
v 7.317121 -0.001380 3.703239
v 7.274791 4.742006 -0.456474
v 10.310522 4.742006 -0.499378
v 10.367538 4.742006 3.660489
v 7.292706 4.742006 1.583631
v 7.292706 4.742006 1.961184
v 7.317121 4.742006 3.703239
v 7.274791 -0.001380 -0.456474
v 10.310522 -0.001380 -0.499378
v 10.367538 -0.001380 3.660489
v 7.292706 -0.001380 1.583631
v 7.317121 -0.001380 3.703239
v 7.274791 -0.001380 -0.834026
v 6.897238 -0.001380 -0.834027
v 3.650277 -0.001380 -9.725934
v 10.096620 -0.001380 -6.102612
v 10.304761 -0.001380 -5.985621
v 10.303321 -0.001380 -0.876862
v 1.528581 -0.001380 -6.662651
v 1.528580 -0.001380 -4.341461
v 1.586292 0.013811 -0.764530
v 3.321151 -0.001380 -9.910927
v -7.417191 -0.001380 -9.186633
v -7.316076 -0.001380 0.547582
v -4.545874 -0.001380 0.519519
v -4.923395 -0.001380 0.524292
v 1.151029 -0.001380 -6.662651
v 1.151033 -0.001380 -4.343439
v 1.208781 0.013811 -0.758894
v -0.268790 0.013811 0.263062
v -2.847052 -0.001380 0.491325
v 6.897238 -0.001380 -0.456474
v -0.238416 -0.001380 3.813411
v 0.139016 -0.001380 3.803839
v 1.365605 0.013811 -0.354778
v 1.591928 0.013811 -0.387020
v -0.317219 0.013811 0.744892
v -0.062985 0.013811 0.579590
v 6.915154 -0.001380 1.583631
v -0.257340 -0.001380 1.953802
v -0.302457 0.010066 1.042938
v 6.939644 -0.001380 3.708530
v -4.541101 -0.001380 0.897041
v -1.946788 -0.001380 6.241200
v -2.131781 -0.001380 6.570325
v -2.838881 -0.001380 0.868789
v -4.511812 -0.001380 2.790562
v -4.513824 -0.001380 2.413015
v -4.883473 -0.001380 2.792542
v -4.959879 -0.001380 2.792950
v -4.908432 -0.001380 6.586667
v -2.633153 -0.001380 6.579959
v -3.010653 -0.001380 6.586215
v -0.824541 -0.001380 4.274907
v -0.634890 -0.001380 1.955374
v -0.632543 0.010066 0.864675
vn -0.0000 -1.0000 -0.0000
vn -0.0004 -1.0000 0.0007
vn 0.0005 -1.0000 0.0005
vn -0.0009 -1.0000 -0.0024
vn 0.0003 -1.0000 -0.0006
vn 0.0055 -1.0000 -0.0018
vn 0.4900 -0.0000 -0.8717
vn 0.0521 -0.0000 0.9986
vn 0.0166 -0.0000 0.9999
vn 0.9999 -0.0000 -0.0153
vn -0.9991 -0.0000 0.0419
vn 0.0191 -0.0000 0.9998
vn 0.9998 -0.0000 -0.0191
vn -0.9999 -0.0000 0.0135
vn 0.8700 -0.0000 0.4931
vn 0.0254 -0.0000 0.9997
vn -0.0617 -0.0000 -0.9981
vn -1.0000 -0.0000 0.0093
vn 0.0135 -0.0000 0.9999
vn -0.0419 -0.0000 -0.9991
vn -1.0000 -0.0000 0.0053
vn 0.9999 -0.0000 -0.0137
vn -1.0000 -0.0000 0.0099
vn 0.0140 -0.0000 0.9999
vn 0.8717 -0.0000 0.4900
vn -0.9999 -0.0000 0.0166
vn -0.0053 -0.0000 -1.0000
vn 0.0093 -0.0000 1.0000
vn -0.9998 -0.0000 0.0219
vn 0.8592 -0.0000 0.5117
vn 0.0097 -0.0000 1.0000
vn 0.9999 -0.0000 -0.0135
vn 0.0201 -0.0000 0.9998
vn -0.9999 -0.0000 0.0104
vn -0.0016 -0.0000 -1.0000
vn -0.0000 1.0000 -0.0000
vn -1.0000 -0.0000 -0.0000
vn -0.0000 -0.0000 -1.0000
vn -0.0000 -0.0000 1.0000
vn 1.0000 -0.0000 -0.0000
vn -0.0009 -0.0000 1.0000
vn 0.9999 -0.0001 -0.0158
vn 0.0063 -1.0000 -0.0000
vn 0.9998 0.0001 -0.0177
vn -1.0000 -0.0000 -0.0022
vn 0.0216 -0.0000 0.9998
vn -0.0063 1.0000 -0.0000
vn 0.9998 -0.0000 -0.0216
vn 0.0073 -1.0000 -0.0052
vn -0.0083 1.0000 0.0012
vn -0.9998 -0.0000 0.0216
vn -0.0022 -0.0000 1.0000
vn 0.0158 -0.0033 -0.9999
vn 0.0083 -1.0000 -0.0017
vn -0.5603 0.0002 -0.8283
vn -0.8809 0.0023 0.4733
vn -0.0216 -0.0000 -0.9998
vn 0.8292 -0.0000 -0.5590
vn -0.5634 0.0024 -0.8262
vn -1.0000 -0.0000 0.0042
vn -0.0057 1.0000 -0.0000
vn -0.4886 0.0005 0.8725
vn -0.8891 -0.0010 -0.4578
vn 0.0081 -0.0002 1.0000
vn 0.0042 -0.0000 1.0000
vn -0.0042 -0.0000 -1.0000
vn 0.9999 -0.0000 -0.0117
vn -0.9995 -0.0037 0.0314
vn 0.3796 0.0030 -0.9252
vn 0.0030 -1.0000 -0.0003
vn 0.0054 -0.0000 1.0000
vn 1.0000 -0.0000 -0.0042
vn -0.0058 1.0000 0.0002
vn -0.0004 1.0000 0.0013
vn -0.4672 0.0006 0.8841
vn -0.8834 0.0013 -0.4687
vn 0.0023 -0.0001 1.0000
vn -0.0140 -0.0000 -0.9999
vn -0.9999 0.0059 0.0128
vn 0.9999 -0.0059 -0.0128
vn 0.0023 0.0001 1.0000
vn -1.0000 0.0059 0.0058
vn 1.0000 -0.0059 -0.0058
vn -1.0000 -0.0000 0.0088
vn 0.0131 -0.0000 0.9999
vn -0.0254 -0.0000 -0.9997
vn 0.1410 -0.0000 0.9900
vn 0.9988 -0.0000 -0.0495
vn 0.9993 -0.0000 -0.0380
vn 0.5526 -0.0074 0.8334
vn 0.5474 -0.0000 0.8369
vn 0.9985 -0.0328 -0.0441
vn 0.5451 -0.0000 0.8384
vn 0.9989 -0.0141 -0.0439
vn -0.9999 -0.0000 0.0140
vn 0.5605 -0.0000 0.8281
vn -0.4900 -0.0000 0.8717
vn 0.8221 -0.0000 0.5694
vn -1.0000 -0.0000 -0.0003
vn -0.0141 -0.0000 -0.9999
vn 0.9999 -0.0000 -0.0161
vn -0.0131 -0.0000 -0.9999
vn -0.0166 -0.0000 -0.9999
vn -0.0126 -0.0000 -0.9999
vn 0.0673 -0.0000 0.9977
vn -0.8315 -0.0000 -0.5555
vn -0.5688 -0.0000 -0.8224
vn -0.0097 -0.0000 -1.0000
vn 0.9999 -0.0000 -0.0104
vn -0.9999 -0.0000 0.0161
vn 0.0134 -0.0000 -0.9999
vn -0.5590 -0.0000 -0.8292
vn 0.9999 -0.0000 -0.0136
vn 0.0053 -0.0000 1.0000
vn 1.0000 -0.0000 -0.0053
vn -0.8716 -0.0027 -0.4902
vn -0.8715 -0.0029 -0.4903
vn -0.8717 -0.0000 -0.4900
vn -0.0192 -0.0000 -0.9998
vn 0.9998 -0.0000 -0.0180
vn -0.9996 -0.0000 0.0278
vn 0.0141 -0.0000 0.9999
vn -0.9999 -0.0000 0.0137
vn 1.0000 -0.0000 -0.0088
vn 0.9999 -0.0000 -0.0140
vn 0.0004 1.0000 -0.0007
vn -0.0005 1.0000 -0.0005
vn 0.0009 1.0000 0.0024
vn -0.0003 1.0000 0.0006
vn -0.0055 1.0000 0.0018
vt 0.503285 0.148767
vt 0.449231 0.145881
vt 0.453217 0.071812
vt 0.507532 0.074719
vt 0.505419 0.112454
vt 0.502835 0.155505
vt 0.509551 0.155958
vt 0.604113 0.161093
vt 0.600847 0.224794
vt 0.598062 0.266086
vt 0.556643 0.318033
vt 0.446315 0.245843
vt 0.442753 0.243512
vt 0.448908 0.152633
vt 0.721460 0.145978
vt 0.764052 0.148434
vt 0.754171 0.321719
vt 0.562276 0.321719
vt 0.604778 0.266539
vt 0.607561 0.225282
vt 0.610833 0.161445
vt 0.638343 0.145038
vt 0.684484 0.144073
vt 0.714739 0.145609
vt 0.635345 0.081558
vt 0.642070 0.081841
vt 0.640173 0.114945
vt 0.639881 0.131205
vt 0.639785 0.136526
vt 0.635064 0.139161
vt 0.608526 0.154063
vt 0.604461 0.154364
vt 0.510001 0.149221
vt 0.512135 0.112908
vt 0.514254 0.075079
vt 0.684792 0.137348
vt 0.645537 0.134772
vt 0.646891 0.115371
vt 0.653052 0.074336
vt 0.675378 0.040706
vt 0.679064 0.035074
vt 0.687995 0.035505
vt 0.694718 0.035847
vt 0.728478 0.038119
vt 0.724835 0.105668
vt 0.723475 0.105583
vt 0.716861 0.105172
vt 0.716443 0.111890
vt 0.715107 0.138891
vt 0.445682 0.433241
vt 0.519025 0.334349
vt 0.524341 0.338292
vt 0.450997 0.437184
vt 0.905446 0.774225
vt 0.978789 0.675333
vt 0.989110 0.682988
vt 0.915767 0.781880
vt 0.994426 0.686930
vt 0.921082 0.785823
vt 0.560227 0.518194
vt 0.633570 0.419302
vt 0.709179 0.475377
vt 0.635836 0.574269
vt 0.354086 0.212022
vt 0.359402 0.215964
vt 0.286058 0.314856
vt 0.280743 0.310914
vt 0.705040 0.625594
vt 0.778383 0.526702
vt 0.783699 0.530645
vt 0.710355 0.629537
vt 0.628454 0.415507
vt 0.555111 0.514399
vt 0.714495 0.479319
vt 0.641151 0.578211
vt 0.015526 0.098589
vt 0.081268 0.009686
vt 0.086583 0.013629
vt 0.013240 0.112521
vt 0.938702 0.645603
vt 0.970825 0.669427
vt 0.897482 0.768319
vt 0.865359 0.744495
vt 0.854345 0.736327
vt 0.927688 0.637435
vt 0.933004 0.641377
vt 0.859661 0.740269
vt 0.291374 0.318799
vt 0.364717 0.219907
vt 0.211886 0.106560
vt 0.217202 0.110502
vt 0.143859 0.209394
vt 0.138543 0.205452
vt 0.010552 0.095987
vt 0.074665 0.004908
vt 0.000259 0.100571
vt 0.066699 0.152169
vt 0.140043 0.053277
vt 0.145358 0.057219
vt 0.072015 0.156111
vt 0.773068 0.522760
vt 0.699724 0.621652
vt 0.831954 0.566433
vt 0.758611 0.665325
vt 0.753297 0.661384
vt 0.826640 0.562492
vt 0.999741 0.690873
vt 0.926398 0.789765
vt 0.077136 0.159909
vt 0.150479 0.061017
vt 0.151555 0.061815
vt 0.078212 0.160707
vt 0.133227 0.201509
vt 0.206571 0.102617
vt 0.172865 0.077619
vt 0.099521 0.176511
vt 0.861293 0.741479
vt 0.934636 0.642587
vt 0.067937 0.000259
vt 0.413319 0.091394
vt 0.402858 0.091394
vt 0.402858 0.014160
vt 0.413319 0.014160
vt 0.413319 0.102922
vt 0.413319 0.101000
vt 0.419911 0.101000
vt 0.419911 0.102922
vt 0.280039 0.501906
vt 0.253073 0.501906
vt 0.253056 0.491444
vt 0.280049 0.491444
vt 0.360483 0.083643
vt 0.353417 0.083643
vt 0.353417 0.006409
vt 0.360483 0.006409
vt 0.351495 0.083643
vt 0.351495 0.006409
vt 0.421833 0.091394
vt 0.419911 0.091394
vt 0.419911 0.014160
vt 0.421833 0.014160
vt 0.370944 0.083643
vt 0.370944 0.006409
vt 0.378020 0.006409
vt 0.378020 0.083643
vt 0.394293 0.091394
vt 0.394293 0.014160
vt 0.396215 0.014160
vt 0.396215 0.091394
vt 0.379942 0.083643
vt 0.379942 0.093249
vt 0.378020 0.093249
vt 0.370944 0.095171
vt 0.370944 0.093249
vt 0.378020 0.095171
vt 0.253073 0.513434
vt 0.253073 0.511512
vt 0.280039 0.511512
vt 0.280039 0.513434
vt 0.353417 0.095171
vt 0.353417 0.093249
vt 0.360483 0.093249
vt 0.360483 0.095171
vt 0.280049 0.479916
vt 0.280049 0.481838
vt 0.253056 0.481838
vt 0.253056 0.479916
vt 0.396215 0.102922
vt 0.396215 0.101000
vt 0.402858 0.101000
vt 0.402858 0.102922
vt 0.351495 0.093249
vt 0.421833 0.101000
vt 0.394293 0.101000
vt 0.379942 0.006409
vt 0.415934 0.201632
vt 0.415943 0.124398
vt 0.417136 0.124399
vt 0.417127 0.201632
vt 0.157237 0.051163
vt 0.189293 0.050953
vt 0.189301 0.052145
vt 0.157264 0.052356
vt 0.409325 0.124398
vt 0.409316 0.201631
vt 0.408123 0.201631
vt 0.408133 0.124397
vt 0.256909 0.064828
vt 0.256831 0.058572
vt 0.334063 0.058810
vt 0.334141 0.065066
vt 0.401515 0.201631
vt 0.401515 0.124397
vt 0.189461 0.062944
vt 0.157405 0.063154
vt 0.157411 0.061961
vt 0.189453 0.061751
vt 0.157035 0.044548
vt 0.189253 0.044697
vt 0.157245 0.032559
vt 0.189461 0.032862
vt 0.189093 0.033996
vt 0.157213 0.033752
vt 0.424951 0.201631
vt 0.423758 0.201631
vt 0.423754 0.124398
vt 0.424947 0.124398
vt 0.400322 0.201631
vt 0.400322 0.124397
vt 0.157013 0.043356
vt 0.188786 0.043599
vt 0.246091 0.057626
vt 0.246035 0.049953
vt 0.247228 0.049944
vt 0.247228 0.057262
vt 0.408133 0.212430
vt 0.401515 0.212430
vt 0.401515 0.211237
vt 0.408118 0.211237
vt 0.256834 0.049944
vt 0.334067 0.049944
vt 0.334067 0.057617
vt 0.256834 0.057379
vt 0.423759 0.212431
vt 0.417141 0.212431
vt 0.417120 0.211238
vt 0.423759 0.211238
vt 0.256834 0.048751
vt 0.334067 0.048751
vt 0.247228 0.048751
vt 0.424951 0.211238
vt 0.400322 0.211237
vt 0.257619 0.017955
vt 0.248030 0.017962
vt 0.248031 0.011321
vt 0.257620 0.011322
vt 0.246002 0.035210
vt 0.246002 0.028593
vt 0.248014 0.028600
vt 0.248014 0.035210
vt 0.260509 0.110444
vt 0.260509 0.104245
vt 0.337742 0.104244
vt 0.337742 0.110444
vt 0.257071 0.438013
vt 0.283050 0.438164
vt 0.283028 0.440176
vt 0.257060 0.440025
vt 0.246018 0.017938
vt 0.246018 0.011320
vt 0.260484 0.122973
vt 0.250897 0.122905
vt 0.250885 0.121087
vt 0.260474 0.121134
vt 0.260526 0.112457
vt 0.337743 0.112457
vt 0.337707 0.121513
vt 0.334853 0.019961
vt 0.257619 0.019968
vt 0.334852 0.017949
vt 0.257620 0.026585
vt 0.334853 0.026579
vt 0.283138 0.431547
vt 0.257180 0.431814
vt 0.257605 0.009309
vt 0.334854 0.009319
vt 0.334853 0.011331
vt 0.257620 0.037223
vt 0.248014 0.037223
vt 0.257620 0.035210
vt 0.282974 0.449782
vt 0.257004 0.449631
vt 0.283005 0.419946
vt 0.283149 0.429534
vt 0.257832 0.429910
vt 0.257543 0.420306
vt 0.282970 0.451795
vt 0.256992 0.451644
vt 0.334853 0.028591
vt 0.257620 0.028598
vt 0.334854 0.035209
vt 0.256992 0.418371
vt 0.282948 0.417934
vt 0.249068 0.121121
vt 0.248976 0.112053
vt 0.250919 0.112575
vt 0.334854 0.037221
vt 0.248014 0.009308
vt 0.337700 0.123526
vt 0.365955 0.121800
vt 0.372572 0.121800
vt 0.372581 0.199033
vt 0.365964 0.199034
vt 0.383060 0.121799
vt 0.383060 0.199033
vt 0.381129 0.199033
vt 0.381129 0.121799
vt 0.374503 0.121799
vt 0.374512 0.199033
vt 0.381107 0.110263
vt 0.381130 0.112193
vt 0.374503 0.112193
vt 0.374486 0.110263
vt 0.219639 0.444353
vt 0.226256 0.444353
vt 0.226256 0.474983
vt 0.219639 0.474890
vt 0.219639 0.367120
vt 0.226256 0.367120
vt 0.237793 0.475000
vt 0.228186 0.475001
vt 0.228186 0.444353
vt 0.237792 0.444353
vt 0.355485 0.121801
vt 0.355485 0.112194
vt 0.357415 0.112194
vt 0.357416 0.121801
vt 0.208102 0.444353
vt 0.217708 0.444353
vt 0.217708 0.474872
vt 0.208102 0.474872
vt 0.206171 0.474889
vt 0.206171 0.444348
vt 0.357393 0.110264
vt 0.364006 0.110264
vt 0.364024 0.112194
vt 0.364033 0.199034
vt 0.364024 0.121801
vt 0.239723 0.474983
vt 0.239723 0.444358
vt 0.357416 0.199034
vt 0.383060 0.112193
vt 0.355485 0.199034
vt 0.495015 0.925013
vt 0.495020 0.938248
vt 0.445754 0.938265
vt 0.445750 0.925030
vt 0.317624 0.938830
vt 0.317626 0.925594
vt 0.189464 0.925156
vt 0.189488 0.938407
vt 0.180360 0.938424
vt 0.180335 0.925172
vt 0.312102 0.938829
vt 0.317640 0.988829
vt 0.312117 0.988831
vt 0.256428 0.925410
vt 0.234410 0.925074
vt 0.234335 0.818755
vt 0.256340 0.819148
vt 0.256556 0.938658
vt 0.263805 0.938751
vt 0.263845 0.988863
vt 0.256634 0.988738
vt 0.312108 0.925594
vt 0.270915 0.925541
vt 0.270841 0.938772
vt 0.263616 0.925510
vt 0.270870 0.988857
vt 0.312078 0.819241
vt 0.317596 0.819240
vt 0.270873 0.819272
vt 0.234454 0.938324
vt 0.234547 0.988364
vt 0.015911 0.938728
vt 0.180452 0.988464
vt 0.016004 0.988767
vt 0.180138 0.818630
vt 0.189267 0.818613
vt 0.445706 0.818635
vt 0.494970 0.818613
vt 0.263537 0.819277
vt 0.015887 0.925476
vt 0.015690 0.818934
vt 0.504138 0.938245
vt 0.546338 0.938229
vt 0.546356 0.988206
vt 0.504156 0.988221
vt 0.189581 0.988447
vt 0.495038 0.988225
vt 0.445770 0.988243
vt 0.225325 0.938341
vt 0.225418 0.988380
vt 0.700994 0.846187
vt 0.706717 0.838471
vt 0.712032 0.842413
vt 0.706310 0.850129
vt 0.386611 0.613025
vt 0.392334 0.605309
vt 0.496440 0.682520
vt 0.490718 0.690235
vt 0.548900 0.721426
vt 0.543177 0.729142
vt 0.748950 0.881754
vt 0.754673 0.874038
vt 0.826595 0.927379
vt 0.820873 0.935095
vt 0.383250 0.610532
vt 0.388972 0.602816
vt 0.776281 0.844902
vt 0.733640 0.813278
vt 0.340604 0.675059
vt 0.337242 0.672566
vt 0.497170 0.791176
vt 0.444710 0.752270
vt 0.632176 0.782698
vt 0.626454 0.790413
vt 0.575856 0.753378
vt 0.581578 0.745662
vt 0.774865 0.997129
vt 0.702942 0.943788
vt 0.660302 0.912163
vt 0.654987 0.908221
vt 0.580446 0.852448
vt 0.529848 0.815412
vt 0.728325 0.809336
vt 0.653785 0.753562
vt 0.603186 0.716527
vt 0.576242 0.741705
vt 0.597851 0.712569
vt 0.554583 0.725641
vt 0.576191 0.696506
vt 0.848203 0.898244
vt 0.518048 0.653384
vt 0.413942 0.576174
vt 0.570508 0.692291
vt 0.410581 0.573680
vt 0.701979 0.675083
vt 0.723588 0.645948
vt 0.728903 0.649890
vt 0.707295 0.679025
vt 0.672337 0.665059
vt 0.696257 0.682799
vt 0.650249 0.744833
vt 0.626329 0.727093
vt 0.667022 0.661117
vt 0.672744 0.653401
vt 0.678060 0.657343
vt 0.344767 0.422117
vt 0.496288 0.534492
vt 0.450280 0.596526
vt 0.298760 0.484151
vt 0.842024 0.790908
vt 0.897021 0.831696
vt 0.851013 0.893730
vt 0.796016 0.852942
vt 0.621014 0.723151
vt 0.733846 0.710186
vt 0.739568 0.702470
vt 0.764860 0.721228
vt 0.759138 0.728944
vt 0.633336 0.636134
vt 0.639058 0.628418
vt 0.502010 0.526776
vt 0.350490 0.414401
vt 0.587328 0.698168
vt 0.815096 0.758977
vt 0.809374 0.766692
vt 0.713130 0.790978
vt 0.687838 0.772220
vt 0.847747 0.783192
vt 0.902743 0.823980
vt 0.763366 0.828726
vt 0.820391 0.762903
vt 0.841999 0.733768
vt 0.863679 0.749847
vt 0.842071 0.778982
vt 0.699668 0.628208
vt 0.755013 0.668764
vt 0.733405 0.697899
vt 0.761176 0.673335
vt 0.786469 0.692093
vt 0.836704 0.729841
vt 0.869355 0.754056
vt 0.694353 0.624266
vt 0.660666 0.599282
vt 0.523618 0.497641
vt 0.924352 0.794844
vt 0.372098 0.385265
vt 0.787037 0.389541
vt 0.990343 0.389542
vt 0.990342 0.499359
vt 0.787036 0.499359
vt 0.787037 0.376572
vt 0.990343 0.376573
vt 0.990343 0.387330
vt 0.787037 0.387330
vt 0.787036 0.006412
vt 0.990342 0.006409
vt 0.990343 0.017337
vt 0.787036 0.017340
vt 0.787037 0.365644
vt 0.990343 0.365645
vt 0.930442 0.177048
vt 0.930442 0.166119
vt 0.990344 0.166120
vt 0.990344 0.177048
vt 0.930442 0.123251
vt 0.930384 0.108276
vt 0.990344 0.108333
vt 0.990344 0.123251
vt 0.930932 0.208617
vt 0.990834 0.208618
vt 0.930441 0.272482
vt 0.930442 0.261553
vt 0.990343 0.261554
vt 0.990343 0.272482
vt 0.787036 0.108313
vt 0.787036 0.042782
vt 0.990343 0.042780
vt 0.787036 0.031854
vt 0.990343 0.031852
vt 0.787037 0.321758
vt 0.990343 0.321758
vt 0.914578 0.177048
vt 0.915069 0.208617
vt 0.787528 0.208617
vt 0.787037 0.177047
vt 0.787037 0.272481
vt 0.077476 0.514174
vt 0.066770 0.514174
vt 0.066770 0.454871
vt 0.077476 0.454871
vt 0.077476 0.314027
vt 0.066770 0.314027
vt 0.066770 0.232765
vt 0.077476 0.232765
vt 0.066770 0.407646
vt 0.066770 0.415021
vt 0.026346 0.415021
vt 0.026346 0.407646
vt 0.077476 0.373616
vt 0.163545 0.314026
vt 0.163545 0.373616
vt 0.066770 0.373616
vt 0.077476 0.415021
vt 0.026346 0.373616
vt 0.163545 0.415021
vt 0.163545 0.454871
vt 0.163545 0.514174
vt 0.163545 0.232765
vt 0.026346 0.314027
vt 0.026346 0.232765
vt 0.026346 0.454871
vt 0.026346 0.514174
vt 0.072547 0.692072
vt 0.074679 0.728354
vt 0.076791 0.766057
vt 0.022522 0.768960
vt 0.018539 0.694955
vt 0.072098 0.685340
vt 0.018217 0.688209
vt 0.012067 0.597408
vt 0.015626 0.595079
vt 0.125859 0.522950
vt 0.167243 0.574853
vt 0.170026 0.616110
vt 0.173289 0.679756
vt 0.078808 0.684887
vt 0.290536 0.694859
vt 0.283820 0.695226
vt 0.253592 0.696762
vt 0.207490 0.695797
vt 0.180003 0.679404
vt 0.176734 0.615622
vt 0.173953 0.574400
vt 0.131488 0.519267
vt 0.323219 0.519267
vt 0.333091 0.692404
vt 0.204494 0.759223
vt 0.083507 0.765697
vt 0.081390 0.727900
vt 0.079257 0.691618
vt 0.173637 0.686479
vt 0.177698 0.686780
vt 0.204213 0.701670
vt 0.208931 0.704302
vt 0.209026 0.709618
vt 0.209318 0.725865
vt 0.211214 0.758940
vt 0.253899 0.703481
vt 0.284188 0.701939
vt 0.285523 0.728917
vt 0.285941 0.735629
vt 0.292549 0.735218
vt 0.293908 0.735134
vt 0.297548 0.802625
vt 0.263816 0.804895
vt 0.257099 0.805237
vt 0.248176 0.805668
vt 0.244493 0.800040
vt 0.222186 0.766439
vt 0.216030 0.725439
vt 0.214678 0.706054
s 0
usemtl Material
f 1/1/1 2/2/1 3/3/1 5/4/1 4/5/1
f 6/6/2 7/7/2 14/8/2 13/9/2 12/10/2 8/11/2 9/12/2 10/13/2 11/14/2
f 19/15/3 17/16/3 16/17/3 15/18/3 20/19/3 21/20/3 22/21/3 23/22/3 24/23/3 18/24/3
f 27/25/4 26/26/4 33/27/4 34/28/4 30/29/4 31/30/4 28/31/4 29/32/4 25/33/4 32/34/4 35/35/4
f 39/36/5 49/37/5 48/38/5 47/39/5 37/40/5 38/41/5 45/42/5 46/43/5 44/44/5 43/45/5 42/46/5 40/47/5 41/48/5 36/49/5
f 48/38/1 33/27/1 26/26/1 47/39/1
f 39/36/6 24/23/6 23/22/6 49/37/6
f 20/19/1 12/10/1 13/9/1 21/20/1
f 32/34/1 4/5/1 5/4/1 35/35/1
f 50/50/7 85/51/7 86/52/7 51/53/7
f 67/54/8 102/55/8 115/56/8 80/57/8
f 80/57/9 115/56/9 116/58/9 81/59/9
f 53/60/10 88/61/10 96/62/10 61/63/10
f 91/64/11 89/65/11 55/66/11 56/67/11
f 64/68/12 99/69/12 100/70/12 65/71/12
f 51/53/7 86/52/7 87/72/7 52/73/7
f 61/63/13 96/62/13 97/74/13 62/75/13
f 78/76/14 113/77/14 110/78/14 76/79/14
f 117/80/15 101/81/15 66/82/15 82/83/15
f 70/84/16 105/85/16 104/86/16 69/87/16
f 54/88/17 90/89/17 85/51/17 50/50/17
f 94/90/18 92/91/18 57/92/18 59/93/18
f 77/94/19 112/95/19 113/77/19 78/76/19
f 55/66/20 89/65/20 90/89/20 54/88/20
f 75/96/1 77/94/1 78/76/1 76/79/1
f 74/97/21 108/98/21 109/99/21 73/100/21
f 62/75/22 97/74/22 98/101/22 63/102/22
f 52/73/7 87/72/7 88/61/7 53/60/7
f 76/79/23 110/78/23 108/98/23 74/97/23
f 119/103/24 84/104/24 83/105/24 118/106/24
f 66/82/25 101/81/25 102/55/25 67/54/25
f 81/59/26 116/58/26 114/107/26 79/108/26
f 72/109/27 107/110/27 106/111/27 71/112/27
f 73/100/27 109/99/27 107/110/27 72/109/27
f 58/113/28 93/114/28 94/90/28 59/93/28
f 71/112/29 106/111/29 95/115/29 60/116/29
f 68/117/30 103/118/30 117/80/30 82/83/30
f 60/116/31 95/115/31 93/114/31 58/113/31
f 75/96/32 111/119/32 112/95/32 77/94/32
f 65/71/24 100/70/24 118/106/24 83/105/24
f 63/102/13 98/101/13 99/69/13 64/68/13
f 104/86/33 103/118/33 68/117/33 69/87/33
f 92/91/34 91/64/34 56/67/34 57/92/34
f 119/103/24 105/85/24 70/84/24 84/104/24
f 135/120/35 137/121/35 143/122/35 141/123/35
f 148/124/36 149/125/36 136/126/36 122/127/36
f 131/128/1 137/129/1 135/130/1 128/131/1
f 128/132/37 153/133/37 140/134/37 129/135/37
f 152/136/38 124/137/38 140/134/38 153/133/38
f 154/138/39 155/139/39 139/140/39 126/141/39
f 131/142/40 132/143/40 130/144/40 159/145/40
f 132/143/41 131/142/41 128/132/41 129/135/41
f 156/146/39 127/147/39 142/148/39 157/149/39
f 158/150/38 121/151/38 134/152/38 159/145/38
f 144/153/36 145/154/36 134/152/36 121/155/36
f 150/156/36 151/157/36 145/158/36 144/159/36
f 120/160/36 133/161/36 147/162/36 146/163/36
f 146/164/36 147/165/36 149/166/36 148/167/36
f 123/168/36 138/169/36 151/170/36 150/171/36
f 137/121/40 151/170/40 138/169/40 157/149/40
f 137/129/40 131/128/40 145/158/40 151/157/40
f 155/139/37 135/120/37 141/123/37 139/140/37
f 149/166/37 147/165/37 128/131/37 135/130/37
f 120/172/38 152/136/38 153/133/38 133/161/38
f 147/162/37 133/161/37 153/133/37 128/132/37
f 122/173/39 136/126/39 155/139/39 154/138/39
f 136/126/37 149/125/37 135/120/37 155/139/37
f 123/174/39 156/146/39 157/149/39 138/169/39
f 143/122/40 137/121/40 157/149/40 142/148/40
f 125/175/38 158/150/38 159/145/38 130/144/38
f 145/154/40 131/142/40 159/145/40 134/152/40
f 164/176/42 171/177/42 189/178/42 182/179/42
f 167/180/43 175/181/43 194/182/43 186/183/43
f 173/184/44 167/185/44 186/186/44 192/187/44
f 175/188/45 160/189/45 169/190/45 177/191/45
f 200/192/46 191/193/46 192/187/46 186/186/46
f 176/194/47 168/195/47 185/196/47 193/197/47
f 164/176/48 167/185/48 173/184/48 171/177/48
f 167/180/49 164/198/49 160/199/49 175/181/49
f 165/200/50 161/201/50 180/202/50 184/203/50
f 197/204/51 198/205/51 190/206/51 172/207/51
f 185/196/52 186/183/52 194/182/52 193/197/52
f 199/208/51 174/209/51 191/193/51 200/192/51
f 182/210/53 184/203/53 180/202/53 178/211/53
f 160/199/54 164/198/54 182/210/54 178/211/54
f 161/212/36 162/213/36 181/214/36 180/215/36
f 168/216/36 166/217/36 187/218/36 185/219/36
f 196/220/55 188/221/55 179/222/55 178/223/55
f 163/224/36 165/225/36 184/226/36 183/227/36
f 169/190/56 160/189/56 178/223/56 179/222/56
f 182/179/57 189/178/57 190/206/57 198/205/57
f 195/228/58 170/229/58 188/221/58 196/220/58
f 162/230/58 195/228/58 196/220/58 181/214/58
f 163/231/51 183/227/51 198/205/51 197/204/51
f 184/226/57 182/179/57 198/205/57 183/227/57
f 181/214/59 196/220/59 178/223/59 180/215/59
f 166/232/51 199/208/51 200/192/51 187/218/51
f 187/218/46 200/192/46 186/186/46 185/219/46
f 227/233/60 234/234/60 230/235/60 239/236/60
f 207/237/36 211/238/36 233/239/36 231/240/36
f 202/241/38 203/242/38 212/243/38 213/244/38
f 203/245/1 210/246/1 232/247/1 224/248/1
f 209/249/61 206/250/61 230/235/61 234/234/61
f 240/251/62 205/252/62 229/253/62 241/254/62
f 222/255/63 221/256/63 220/257/63 241/254/63
f 218/258/64 208/259/64 227/233/64 226/260/64
f 210/261/65 208/259/65 218/258/65 217/262/65
f 208/263/1 210/246/1 203/245/1 202/264/1
f 238/265/66 216/266/66 228/267/66 239/236/66
f 236/268/66 207/269/66 231/240/66 237/270/66
f 232/247/67 233/271/67 225/272/67 224/248/67
f 234/273/68 227/274/68 222/275/68 223/276/68
f 211/277/36 204/278/36 225/272/36 233/271/36
f 202/241/69 213/244/69 221/256/69 222/255/69
f 208/263/70 202/264/70 222/275/70 227/274/70
f 210/261/71 217/262/71 235/279/71 232/280/71
f 232/280/72 235/279/72 219/281/72 237/270/72
f 201/282/73 209/283/73 234/273/73 223/276/73
f 205/284/74 201/285/74 223/286/74 229/253/74
f 215/287/66 236/268/66 237/270/66 219/281/66
f 206/288/66 238/265/66 239/236/66 230/235/66
f 226/260/60 227/233/60 239/236/60 228/267/60
f 233/239/72 232/280/72 237/270/72 231/240/72
f 214/289/75 240/251/75 241/254/75 220/257/75
f 223/286/76 222/255/76 241/254/76 229/253/76
f 246/290/39 244/291/39 251/292/39 250/293/39
f 272/294/38 249/295/38 266/296/38 273/297/38
f 251/292/77 244/291/77 263/298/77 267/299/77
f 242/300/36 258/301/36 247/302/36 261/303/36
f 273/297/37 266/296/37 267/299/37 263/298/37
f 253/304/1 256/305/1 244/306/1 246/307/1
f 256/305/78 253/304/78 254/308/78 257/309/78
f 247/310/79 263/311/79 271/312/79 270/313/79
f 274/314/38 243/315/38 259/316/38 275/317/38
f 268/318/80 269/319/80 260/320/80 245/321/80
f 262/322/36 252/323/36 268/318/36 245/321/36
f 243/324/36 262/325/36 245/326/36 259/316/36
f 246/290/81 250/293/81 264/327/81 260/328/81
f 253/304/1 246/307/1 260/320/1 269/319/1
f 244/306/1 256/305/1 271/312/1 263/311/1
f 261/329/36 247/310/36 270/313/36 255/330/36
f 260/328/40 264/327/40 265/331/40 275/317/40
f 242/332/38 272/294/38 273/297/38 258/301/38
f 258/301/82 273/297/82 263/298/82 247/302/82
f 248/333/38 274/314/38 275/317/38 265/331/38
f 245/326/83 260/328/83 275/317/83 259/316/83
f 290/334/84 291/335/84 277/336/84 276/337/84
f 285/338/85 284/339/85 276/337/85 277/336/85
f 278/340/86 279/341/86 281/342/86 280/343/86
f 283/344/87 285/338/87 315/345/87 314/346/87
f 306/347/88 293/348/88 304/349/88 307/350/88
f 305/351/89 287/352/89 316/353/89 323/354/89
f 284/339/87 285/338/87 283/344/87 282/355/87
f 288/356/90 289/357/90 287/352/90 286/358/90
f 289/357/91 283/344/91 314/346/91 317/359/91
f 284/339/87 282/355/87 299/360/87 300/361/87
f 282/355/91 288/356/91 302/362/91 299/360/91
f 294/363/89 305/351/89 323/354/89 321/364/89
f 308/365/78 281/342/78 313/366/78 318/367/78
f 289/357/91 288/356/91 282/355/91 283/344/91
f 305/351/92 306/347/92 286/358/92 287/352/92
f 278/340/86 280/343/86 298/368/86 297/369/86
f 290/334/84 276/337/84 296/370/84 303/371/84
f 288/356/93 286/358/93 301/372/93 302/362/93
f 276/337/85 284/339/85 300/361/85 296/370/85
f 294/363/94 293/348/94 306/347/94 305/351/94
f 286/358/88 306/347/88 307/350/88 301/372/88
f 280/343/78 309/373/78 310/374/78 298/368/78
f 280/343/78 281/342/78 308/365/78 309/373/78
f 292/375/95 308/376/95 318/377/95 320/378/95
f 281/342/86 279/341/86 312/379/86 313/366/86
f 291/335/37 292/375/37 320/378/37 319/380/37
f 277/336/84 291/335/84 319/380/84 311/381/84
f 287/352/96 289/357/96 317/359/96 316/353/96
f 285/338/85 277/336/85 311/381/85 315/345/85
f 279/341/67 295/382/67 322/383/67 312/379/67
f 295/382/72 294/363/72 321/364/72 322/383/72
f 324/384/38 325/385/38 327/386/38 326/387/38
f 330/388/97 331/389/97 329/390/97 328/391/97
f 338/392/98 337/393/98 328/391/98 329/390/98
f 334/394/99 335/395/99 333/396/99 332/397/99
f 332/398/97 333/399/97 331/389/97 330/388/97
f 358/400/100 335/395/100 327/386/100 354/401/100
f 332/398/97 330/388/97 347/402/97 348/403/97
f 328/391/98 337/393/98 350/404/98 346/405/98
f 343/406/101 342/407/101 339/408/101 340/409/101
f 335/395/100 334/394/100 326/387/100 327/386/100
f 342/407/102 343/406/102 325/385/102 324/384/102
f 330/388/97 328/391/97 346/405/97 347/402/97
f 334/394/99 332/397/99 348/410/99 349/411/99
f 326/387/100 334/394/100 349/411/100 344/412/100
f 342/407/102 324/384/102 345/413/102 352/414/102
f 339/408/101 342/407/101 352/414/101 351/415/101
f 324/384/38 326/387/38 344/412/38 345/413/38
f 353/416/102 325/385/102 343/406/102 363/417/102
f 362/418/40 340/409/40 341/419/40 361/420/40
f 361/420/40 341/419/40 336/421/40 360/422/40
f 357/423/99 333/396/99 335/395/99 358/400/99
f 355/424/97 329/390/97 331/389/97 356/425/97
f 363/417/101 343/406/101 340/409/101 362/418/101
f 354/401/38 327/386/38 325/385/38 353/416/38
f 360/422/40 336/421/40 338/392/40 359/426/40
f 359/426/98 338/392/98 329/390/98 355/424/98
f 356/425/97 331/389/97 333/399/97 357/427/97
f 386/428/57 410/429/57 411/430/57 387/431/57
f 372/432/103 385/433/103 397/434/103 391/435/103
f 370/436/104 371/437/104 373/438/104 372/432/104
f 364/439/105 366/440/105 389/441/105 388/442/105
f 375/443/106 364/444/106 388/445/106 393/446/106
f 370/436/104 372/432/104 391/435/104 392/447/104
f 383/448/107 384/449/107 381/450/107 380/451/107
f 371/437/108 370/436/108 368/452/108 369/453/108
f 369/453/109 368/452/109 366/440/109 367/454/109
f 367/454/105 366/440/105 364/439/105 365/455/105
f 366/440/109 368/452/109 390/456/109 389/441/109
f 380/451/110 381/450/110 378/457/110 377/458/110
f 383/448/107 380/451/107 395/459/107 396/460/107
f 375/443/106 376/461/106 365/462/106 364/444/106
f 386/428/103 385/433/103 372/432/103 373/438/103
f 380/451/110 377/458/110 394/463/110 395/459/110
f 368/452/108 370/436/108 392/447/108 390/456/108
f 379/464/37 406/465/37 403/466/37 374/467/37
f 373/438/103 402/468/103 410/429/103 386/428/103
f 387/431/111 411/430/111 408/469/111 382/470/111
f 382/470/112 408/469/112 409/471/112 384/449/112
f 381/450/110 407/472/110 405/473/110 378/457/110
f 374/467/37 403/466/37 404/474/37 376/461/37
f 401/475/108 371/437/108 369/453/108 400/476/108
f 384/449/107 409/471/107 407/472/107 381/450/107
f 367/454/109 399/477/109 400/476/109 369/453/109
f 376/461/106 404/474/106 398/478/106 365/462/106
f 365/455/105 398/479/105 399/477/105 367/454/105
f 402/468/104 373/438/104 371/437/104 401/475/104
f 378/457/37 405/473/37 406/465/37 379/464/37
f 426/480/113 444/481/113 445/482/113 427/483/113
f 423/484/114 442/485/114 443/486/114 425/487/114
f 429/488/103 446/489/103 447/490/103 428/491/103
f 425/487/114 443/486/114 444/481/114 426/480/114
f 424/492/115 441/493/115 442/485/115 423/484/115
f 417/494/60 418/495/60 450/496/60 449/497/60
f 412/498/116 415/499/116 448/500/116 438/501/116
f 433/502/45 417/494/45 449/497/45 451/503/45
f 413/504/46 414/505/46 439/506/46 440/507/46
f 415/499/117 430/508/117 420/509/117 437/510/117 448/500/117
f 421/511/118 436/512/118 437/510/118 420/509/118
f 428/491/119 447/490/119 436/512/119 421/511/119
f 419/513/120 435/514/120 441/493/120 424/492/120
f 416/515/45 417/494/45 433/502/45 432/516/45
f 416/515/45 432/516/45 434/517/45 431/518/45
f 413/504/9 440/507/9 435/514/9 419/513/9 422/519/9
f 414/505/52 433/502/52 451/503/52 439/506/52
f 418/495/121 412/498/121 438/501/121 450/496/121
f 454/520/122 455/521/122 453/522/122 452/523/122
f 456/524/123 457/525/123 455/526/123 454/527/123
f 460/528/40 459/529/40 471/530/40 472/531/40
f 466/532/78 456/524/78 463/533/78 467/534/78
f 466/532/78 465/535/78 457/525/78 456/524/78
f 459/529/124 458/536/124 452/523/124 453/522/124
f 465/535/125 460/528/125 472/531/125 473/537/125
f 452/523/124 458/536/124 464/538/124 461/539/124
f 454/520/122 452/523/122 461/539/122 462/540/122
f 456/524/123 454/527/123 462/541/123 463/533/123
f 455/526/123 457/525/123 470/542/123 469/543/123
f 457/525/78 465/535/78 473/537/78 470/542/78
f 459/529/124 453/522/124 468/544/124 471/530/124
f 453/522/122 455/521/122 469/545/122 468/544/122
f 474/546/36 477/547/36 478/548/36 476/549/36 475/550/36
f 479/551/126 484/552/126 483/553/126 482/554/126 481/555/126 485/556/126 486/557/126 487/558/126 480/559/126
f 492/560/127 491/561/127 497/562/127 496/563/127 495/564/127 494/565/127 493/566/127 488/567/127 489/568/127 490/569/127
f 500/570/128 508/571/128 505/572/128 498/573/128 502/574/128 501/575/128 504/576/128 503/577/128 507/578/128 506/579/128 499/580/128
f 512/581/129 509/582/129 514/583/129 513/584/129 515/585/129 516/586/129 517/587/129 519/588/129 518/589/129 511/590/129 510/591/129 520/592/129 521/593/129 522/594/129
f 521/593/36 520/592/36 499/580/36 506/579/36
f 512/581/130 522/594/130 496/563/130 497/562/130
f 493/566/36 494/565/36 486/557/36 485/556/36
f 505/572/36 508/571/36 478/548/36 477/547/36
