{"asset":{"version":"2.0","generator":"Unity 6000.3.0f1 glTFast 6.19.0"},"nodes":[{"name":"Object_8","mesh":0},{"name":"polySurface8_4","children":[0]},{"name":"polySurface8_3","children":[1]},{"name":"Object_11","mesh":1},{"name":"polySurface9_6","children":[3]},{"name":"polySurface9_5","children":[4]},{"name":"Object_14","mesh":2},{"name":"polySurface10_8","children":[6]},{"name":"polySurface10_7","children":[7]},{"name":"Object_17","mesh":3},{"name":"polySurface11_10","children":[9]},{"name":"polySurface11_9","children":[10]},{"name":"Object_20","mesh":4},{"name":"polySurface12_12","children":[12]},{"name":"polySurface12_11","children":[13]},{"name":"Object_23","mesh":5},{"name":"polySurface13_14","children":[15]},{"name":"polySurface13_13","children":[16]},{"name":"Object_26","mesh":6},{"name":"polySurface14_16","children":[18]},{"name":"polySurface14_15","children":[19]},{"name":"sweep2_2","children":[2,5,8,11,14,17,20]},{"name":"Object_30","mesh":7},{"name":"polySurface1_19","children":[22]},{"name":"polySurface1_18","children":[23]},{"name":"Object_33","mesh":8},{"name":"polySurface2_21","children":[25]},{"name":"polySurface2_20","children":[26]},{"name":"Object_36","mesh":9},{"name":"polySurface3_23","children":[28]},{"name":"polySurface3_22","children":[29]},{"name":"Object_39","mesh":10},{"name":"polySurface4_25","children":[31]},{"name":"polySurface4_24","children":[32]},{"name":"Object_42","mesh":11},{"name":"polySurface5_27","children":[34]},{"name":"polySurface5_26","children":[35]},{"name":"Object_45","mesh":12},{"name":"polySurface6_29","children":[37]},{"name":"polySurface6_28","children":[38]},{"name":"Object_48","mesh":13},{"name":"polySurface7_31","children":[40]},{"name":"polySurface7_30","children":[41]},{"name":"sweep1_17","children":[24,27,30,33,36,39,42]},{"name":"Rope_1","children":[21,43]},{"name":"RootNode_0","children":[44]},{"name":"GLTF_SceneRootNode","children":[45],"rotation":[0.7071068,0,0,0.7071068]},{"name":"root","children":[46]},{"name":"scene","children":[47],"rotation":[0.707106769,0,0,-0.7071067],"scale":[1,1.00000012,1.00000012]}],"buffers":[{"uri":"scene.bin","byteLength":35288344}],"bufferViews":[{"buffer":0,"byteLength":279360,"target":34963},{"buffer":0,"byteLength":279360,"byteOffset":279360,"target":34963},{"buffer":0,"byteLength":279360,"byteOffset":558720,"target":34963},{"buffer":0,"byteLength":279360,"byteOffset":838080,"target":34963},{"buffer":0,"byteLength":279360,"byteOffset":1117440,"target":34963},{"buffer":0,"byteLength":279360,"byteOffset":1396800,"target":34963},{"buffer":0,"byteLength":279360,"byteOffset":1676160,"target":34963},{"buffer":0,"byteLength":1110912,"byteOffset":1955520,"target":34963},{"buffer":0,"byteLength":1110912,"byteOffset":3066432,"target":34963},{"buffer":0,"byteLength":1110912,"byteOffset":4177344,"target":34963},{"buffer":0,"byteLength":1110912,"byteOffset":5288256,"target":34963},{"buffer":0,"byteLength":1110912,"byteOffset":6399168,"target":34963},{"buffer":0,"byteLength":1110912,"byteOffset":7510080,"target":34963},{"buffer":0,"byteLength":1110912,"byteOffset":8620992,"target":34963},{"buffer":0,"byteLength":524440,"byteOffset":9731904,"byteStride":40,"target":34962},{"buffer":0,"byteLength":209776,"byteOffset":10256344,"byteStride":16,"target":34962},{"buffer":0,"byteLength":524280,"byteOffset":10466120,"byteStride":40,"target":34962},{"buffer":0,"byteLength":209712,"byteOffset":10990400,"byteStride":16,"target":34962},{"buffer":0,"byteLength":524240,"byteOffset":11200112,"byteStride":40,"target":34962},{"buffer":0,"byteLength":209696,"byteOffset":11724352,"byteStride":16,"target":34962},{"buffer":0,"byteLength":524680,"byteOffset":11934048,"byteStride":40,"target":34962},{"buffer":0,"byteLength":209872,"byteOffset":12458728,"byteStride":16,"target":34962},{"buffer":0,"byteLength":524160,"byteOffset":12668600,"byteStride":40,"target":34962},{"buffer":0,"byteLength":209664,"byteOffset":13192760,"byteStride":16,"target":34962},{"buffer":0,"byteLength":524720,"byteOffset":13402424,"byteStride":40,"target":34962},{"buffer":0,"byteLength":209888,"byteOffset":13927144,"byteStride":16,"target":34962},{"buffer":0,"byteLength":524840,"byteOffset":14137032,"byteStride":40,"target":34962},{"buffer":0,"byteLength":209936,"byteOffset":14661872,"byteStride":16,"target":34962},{"buffer":0,"byteLength":2083320,"byteOffset":14871808,"byteStride":40,"target":34962},{"buffer":0,"byteLength":833328,"byteOffset":16955128,"byteStride":16,"target":34962},{"buffer":0,"byteLength":2083320,"byteOffset":17788456,"byteStride":40,"target":34962},{"buffer":0,"byteLength":833328,"byteOffset":19871776,"byteStride":16,"target":34962},{"buffer":0,"byteLength":2083320,"byteOffset":20705104,"byteStride":40,"target":34962},{"buffer":0,"byteLength":833328,"byteOffset":22788424,"byteStride":16,"target":34962},{"buffer":0,"byteLength":2083320,"byteOffset":23621752,"byteStride":40,"target":34962},{"buffer":0,"byteLength":833328,"byteOffset":25705072,"byteStride":16,"target":34962},{"buffer":0,"byteLength":2083320,"byteOffset":26538400,"byteStride":40,"target":34962},{"buffer":0,"byteLength":833328,"byteOffset":28621720,"byteStride":16,"target":34962},{"buffer":0,"byteLength":2083320,"byteOffset":29455048,"byteStride":40,"target":34962},{"buffer":0,"byteLength":833328,"byteOffset":31538368,"byteStride":16,"target":34962},{"buffer":0,"byteLength":2083320,"byteOffset":32371696,"byteStride":40,"target":34962},{"buffer":0,"byteLength":833328,"byteOffset":34455016,"byteStride":16,"target":34962}],"accessors":[{"bufferView":14,"componentType":5126,"count":13111,"type":"VEC3","max":[-1.08266068,4.680297,0.281775236],"min":[-2.482164,3.57544065,-0.5053582]},{"bufferView":14,"componentType":5126,"count":13111,"type":"VEC3","byteOffset":12},{"bufferView":14,"componentType":5126,"count":13111,"type":"VEC4","byteOffset":24},{"bufferView":15,"componentType":5126,"count":13111,"type":"VEC2"},{"bufferView":15,"componentType":5126,"count":13111,"type":"VEC2","byteOffset":8},{"bufferView":0,"componentType":5125,"count":69840,"type":"SCALAR"},{"bufferView":16,"componentType":5126,"count":13107,"type":"VEC3","max":[-1.09056377,4.67989349,0.302232653],"min":[-2.458488,3.55164123,-0.4950237]},{"bufferView":16,"componentType":5126,"count":13107,"type":"VEC3","byteOffset":12},{"bufferView":16,"componentType":5126,"count":13107,"type":"VEC4","byteOffset":24},{"bufferView":17,"componentType":5126,"count":13107,"type":"VEC2"},{"bufferView":17,"componentType":5126,"count":13107,"type":"VEC2","byteOffset":8},{"bufferView":1,"componentType":5125,"count":69840,"type":"SCALAR"},{"bufferView":18,"componentType":5126,"count":13106,"type":"VEC3","max":[-1.1102159,4.67188168,0.3278104],"min":[-2.45025516,3.53808475,-0.508842468]},{"bufferView":18,"componentType":5126,"count":13106,"type":"VEC3","byteOffset":12},{"bufferView":18,"componentType":5126,"count":13106,"type":"VEC4","byteOffset":24},{"bufferView":19,"componentType":5126,"count":13106,"type":"VEC2"},{"bufferView":19,"componentType":5126,"count":13106,"type":"VEC2","byteOffset":8},{"bufferView":2,"componentType":5125,"count":69840,"type":"SCALAR"},{"bufferView":20,"componentType":5126,"count":13117,"type":"VEC3","max":[-1.11799622,4.651514,0.3447051],"min":[-2.46358681,3.54496551,-0.5052108]},{"bufferView":20,"componentType":5126,"count":13117,"type":"VEC3","byteOffset":12},{"bufferView":20,"componentType":5126,"count":13117,"type":"VEC4","byteOffset":24},{"bufferView":21,"componentType":5126,"count":13117,"type":"VEC2"},{"bufferView":21,"componentType":5126,"count":13117,"type":"VEC2","byteOffset":8},{"bufferView":3,"componentType":5125,"count":69840,"type":"SCALAR"},{"bufferView":22,"componentType":5126,"count":13104,"type":"VEC3","max":[-1.10912776,4.658581,0.348815918],"min":[-2.488231,3.56532574,-0.507037163]},{"bufferView":22,"componentType":5126,"count":13104,"type":"VEC3","byteOffset":12},{"bufferView":22,"componentType":5126,"count":13104,"type":"VEC4","byteOffset":24},{"bufferView":23,"componentType":5126,"count":13104,"type":"VEC2"},{"bufferView":23,"componentType":5126,"count":13104,"type":"VEC2","byteOffset":8},{"bufferView":4,"componentType":5125,"count":69840,"type":"SCALAR"},{"bufferView":24,"componentType":5126,"count":13118,"type":"VEC3","max":[-1.11422753,4.66943359,0.33469975],"min":[-2.506008,3.5936296,-0.5225265]},{"bufferView":24,"componentType":5126,"count":13118,"type":"VEC3","byteOffset":12},{"bufferView":24,"componentType":5126,"count":13118,"type":"VEC4","byteOffset":24},{"bufferView":25,"componentType":5126,"count":13118,"type":"VEC2"},{"bufferView":25,"componentType":5126,"count":13118,"type":"VEC2","byteOffset":8},{"bufferView":5,"componentType":5125,"count":69840,"type":"SCALAR"},{"bufferView":26,"componentType":5126,"count":13121,"type":"VEC3","max":[-1.09227443,4.676403,0.305135846],"min":[-2.5033977,3.60491538,-0.5222577]},{"bufferView":26,"componentType":5126,"count":13121,"type":"VEC3","byteOffset":12},{"bufferView":26,"componentType":5126,"count":13121,"type":"VEC4","byteOffset":24},{"bufferView":27,"componentType":5126,"count":13121,"type":"VEC2"},{"bufferView":27,"componentType":5126,"count":13121,"type":"VEC2","byteOffset":8},{"bufferView":6,"componentType":5125,"count":69840,"type":"SCALAR"},{"bufferView":28,"componentType":5126,"count":52083,"type":"VEC3","max":[2.39541769,5.016569,0.3770935],"min":[-2.10458517,0.00607442856,-0.37957865]},{"bufferView":28,"componentType":5126,"count":52083,"type":"VEC3","byteOffset":12},{"bufferView":28,"componentType":5126,"count":52083,"type":"VEC4","byteOffset":24},{"bufferView":29,"componentType":5126,"count":52083,"type":"VEC2"},{"bufferView":29,"componentType":5126,"count":52083,"type":"VEC2","byteOffset":8},{"bufferView":7,"componentType":5125,"count":277728,"type":"SCALAR"},{"bufferView":30,"componentType":5126,"count":52083,"type":"VEC3","max":[2.35208249,5.01472569,0.364352],"min":[-2.1222384,-0.0100328922,-0.363818049]},{"bufferView":30,"componentType":5126,"count":52083,"type":"VEC3","byteOffset":12},{"bufferView":30,"componentType":5126,"count":52083,"type":"VEC4","byteOffset":24},{"bufferView":31,"componentType":5126,"count":52083,"type":"VEC2"},{"bufferView":31,"componentType":5126,"count":52083,"type":"VEC2","byteOffset":8},{"bufferView":8,"componentType":5125,"count":277728,"type":"SCALAR"},{"bufferView":32,"componentType":5126,"count":52083,"type":"VEC3","max":[2.3912735,4.996884,0.339459121],"min":[-2.137084,-0.0144462585,-0.3754626]},{"bufferView":32,"componentType":5126,"count":52083,"type":"VEC3","byteOffset":12},{"bufferView":32,"componentType":5126,"count":52083,"type":"VEC4","byteOffset":24},{"bufferView":33,"componentType":5126,"count":52083,"type":"VEC2"},{"bufferView":33,"componentType":5126,"count":52083,"type":"VEC2","byteOffset":8},{"bufferView":9,"componentType":5125,"count":277728,"type":"SCALAR"},{"bufferView":34,"componentType":5126,"count":52083,"type":"VEC3","max":[2.41867614,4.96936035,0.3038343],"min":[-2.1451304,-0.007529497,-0.361597925]},{"bufferView":34,"componentType":5126,"count":52083,"type":"VEC3","byteOffset":12},{"bufferView":34,"componentType":5126,"count":52083,"type":"VEC4","byteOffset":24},{"bufferView":35,"componentType":5126,"count":52083,"type":"VEC2"},{"bufferView":35,"componentType":5126,"count":52083,"type":"VEC2","byteOffset":8},{"bufferView":10,"componentType":5125,"count":277728,"type":"SCALAR"},{"bufferView":36,"componentType":5126,"count":52083,"type":"VEC3","max":[2.43609,4.94395065,0.301935583],"min":[-2.14581537,0.01004982,-0.334017]},{"bufferView":36,"componentType":5126,"count":52083,"type":"VEC3","byteOffset":12},{"bufferView":36,"componentType":5126,"count":52083,"type":"VEC4","byteOffset":24},{"bufferView":37,"componentType":5126,"count":52083,"type":"VEC2"},{"bufferView":37,"componentType":5126,"count":52083,"type":"VEC2","byteOffset":8},{"bufferView":11,"componentType":5125,"count":277728,"type":"SCALAR"},{"bufferView":38,"componentType":5126,"count":52083,"type":"VEC3","max":[2.43909574,4.977628,0.3420942],"min":[-2.13897586,0.0345582962,-0.3670071]},{"bufferView":38,"componentType":5126,"count":52083,"type":"VEC3","byteOffset":12},{"bufferView":38,"componentType":5126,"count":52083,"type":"VEC4","byteOffset":24},{"bufferView":39,"componentType":5126,"count":52083,"type":"VEC2"},{"bufferView":39,"componentType":5126,"count":52083,"type":"VEC2","byteOffset":8},{"bufferView":12,"componentType":5125,"count":277728,"type":"SCALAR"},{"bufferView":40,"componentType":5126,"count":52083,"type":"VEC3","max":[2.42430258,5.00174427,0.367125452],"min":[-2.124601,0.0299479961,-0.3855992]},{"bufferView":40,"componentType":5126,"count":52083,"type":"VEC3","byteOffset":12},{"bufferView":40,"componentType":5126,"count":52083,"type":"VEC4","byteOffset":24},{"bufferView":41,"componentType":5126,"count":52083,"type":"VEC2"},{"bufferView":41,"componentType":5126,"count":52083,"type":"VEC2","byteOffset":8},{"bufferView":13,"componentType":5125,"count":277728,"type":"SCALAR"}],"images":[{"name":"Rope_1001_baseColor.jpg","uri":"Rope_1001_baseColor.jpg","mimeType":"image/jpeg"},{"name":"Rope_1001_metallicRoughness.jpg","uri":"Rope_1001_metallicRoughness.jpg","mimeType":"image/jpeg"},{"name":"Rope_1001_normal.png","uri":"Rope_1001_normal.png","mimeType":"image/png"}],"materials":[{"name":"Rope_1001","pbrMetallicRoughness":{"baseColorTexture":{"index":0},"metallicRoughnessTexture":{"index":1}},"normalTexture":{"index":2},"occlusionTexture":{"index":1}}],"meshes":[{"name":"Object_0","primitives":[{"attributes":{"POSITION":0,"NORMAL":1,"TANGENT":2,"TEXCOORD_0":3,"TEXCOORD_1":4},"indices":5,"material":0}]},{"name":"Object_1","primitives":[{"attributes":{"POSITION":6,"NORMAL":7,"TANGENT":8,"TEXCOORD_0":9,"TEXCOORD_1":10},"indices":11,"material":0}]},{"name":"Object_2","primitives":[{"attributes":{"POSITION":12,"NORMAL":13,"TANGENT":14,"TEXCOORD_0":15,"TEXCOORD_1":16},"indices":17,"material":0}]},{"name":"Object_3","primitives":[{"attributes":{"POSITION":18,"NORMAL":19,"TANGENT":20,"TEXCOORD_0":21,"TEXCOORD_1":22},"indices":23,"material":0}]},{"name":"Object_4","primitives":[{"attributes":{"POSITION":24,"NORMAL":25,"TANGENT":26,"TEXCOORD_0":27,"TEXCOORD_1":28},"indices":29,"material":0}]},{"name":"Object_5","primitives":[{"attributes":{"POSITION":30,"NORMAL":31,"TANGENT":32,"TEXCOORD_0":33,"TEXCOORD_1":34},"indices":35,"material":0}]},{"name":"Object_6","primitives":[{"attributes":{"POSITION":36,"NORMAL":37,"TANGENT":38,"TEXCOORD_0":39,"TEXCOORD_1":40},"indices":41,"material":0}]},{"name":"Object_7","primitives":[{"attributes":{"POSITION":42,"NORMAL":43,"TANGENT":44,"TEXCOORD_0":45,"TEXCOORD_1":46},"indices":47,"material":0}]},{"name":"Object_8","primitives":[{"attributes":{"POSITION":48,"NORMAL":49,"TANGENT":50,"TEXCOORD_0":51,"TEXCOORD_1":52},"indices":53,"material":0}]},{"name":"Object_9","primitives":[{"attributes":{"POSITION":54,"NORMAL":55,"TANGENT":56,"TEXCOORD_0":57,"TEXCOORD_1":58},"indices":59,"material":0}]},{"name":"Object_10","primitives":[{"attributes":{"POSITION":60,"NORMAL":61,"TANGENT":62,"TEXCOORD_0":63,"TEXCOORD_1":64},"indices":65,"material":0}]},{"name":"Object_11","primitives":[{"attributes":{"POSITION":66,"NORMAL":67,"TANGENT":68,"TEXCOORD_0":69,"TEXCOORD_1":70},"indices":71,"material":0}]},{"name":"Object_12","primitives":[{"attributes":{"POSITION":72,"NORMAL":73,"TANGENT":74,"TEXCOORD_0":75,"TEXCOORD_1":76},"indices":77,"material":0}]},{"name":"Object_13","primitives":[{"attributes":{"POSITION":78,"NORMAL":79,"TANGENT":80,"TEXCOORD_0":81,"TEXCOORD_1":82},"indices":83,"material":0}]}],"scene":0,"scenes":[{"name":"scene","nodes":[48]}],"textures":[{"source":0},{"source":1},{"source":2}]}