# Blender 4.4.3
# www.blender.org
mtllib Hub Floor plan - WALLS.mtl
o Walls
v 6.897238 2.717716 -0.834026
v 6.897238 2.972681 -0.834026
v 7.274791 2.717716 -0.834026
v 7.274791 2.972681 -0.834026
v 6.897238 2.717716 -0.456473
v 6.897238 2.972681 -0.456473
v 7.274791 2.717716 -0.456473
v 7.274791 2.972681 -0.456473
v 3.321152 2.717716 -9.910927
v 3.321152 2.972681 -9.910927
v 3.506144 2.717716 -10.240052
v 3.506144 2.972681 -10.240052
v 3.650277 2.717716 -9.725934
v 3.650277 2.972681 -9.725934
v 3.835270 2.717716 -10.055060
v 3.835270 2.972681 -10.055060
v 10.096621 2.717716 -6.102612
v 10.096621 2.972681 -6.102612
v 10.281613 2.717716 -6.431738
v 10.281613 2.972681 -6.431738
v 10.304763 2.717716 -5.985621
v 10.304763 2.972681 -5.985621
v 10.598399 2.717716 -6.253682
v 10.598399 2.972681 -6.253682
v -7.810228 2.717716 -9.548042
v -7.810228 2.972681 -9.548042
v -7.433006 2.717716 -9.563854
v -7.433006 2.972681 -9.563854
v -7.794415 2.717716 -9.170821
v -7.794415 2.972681 -9.170821
v -7.417192 2.717716 -9.186633
v -7.417192 2.972681 -9.186633
v -7.693614 2.717716 0.551112
v -7.693614 2.972681 0.551112
v -7.316077 2.717716 0.547583
v -7.316077 2.972681 0.547583
v -7.690087 2.717716 0.928648
v -7.690087 2.972681 0.928648
v -7.312550 2.717716 0.925119
v -7.312550 2.972681 0.925119
v -4.923397 2.717716 0.524293
v -4.923397 2.972681 0.524293
v -4.545875 2.717716 0.519520
v -4.545875 2.972681 0.519520
v -4.918624 2.717716 0.901815
v -4.918624 2.972681 0.901815
v -4.541101 2.717716 0.897042
v -4.541101 2.972681 0.897042
v 10.303323 2.717716 -0.876861
v 10.303323 2.972681 -0.876861
v 10.680807 2.717716 -0.884062
v 10.680807 2.972681 -0.884062
v 10.310524 2.717716 -0.499377
v 10.310524 2.972681 -0.499377
v 10.688008 2.717716 -0.506578
v 10.688008 2.972681 -0.506578
v 10.367540 2.717716 3.660490
v 10.367540 2.972681 3.660490
v 10.745025 2.717716 3.653288
v 10.745025 2.972681 3.653288
v 10.374742 2.717716 4.037973
v 10.374742 2.972681 4.037973
v 10.752226 2.717716 4.030772
v 10.752226 2.972681 4.030772
v -2.131781 2.717716 6.570328
v -2.131781 2.972681 6.570328
v -1.946789 2.717716 6.241203
v -1.946789 2.972681 6.241203
v -1.894810 2.717716 6.919275
v -1.894810 2.972681 6.919275
v -1.617663 2.717716 6.426196
v -1.617663 2.972681 6.426196
v -0.344727 2.717716 4.193171
v -0.344727 2.972681 4.193171
v -0.592144 2.972681 3.813413
v -0.592144 2.717716 3.813413
v -0.238416 2.717716 3.813413
v -0.238416 2.972681 3.813413
v 0.139015 2.717716 3.803841
v 0.139015 2.972681 3.803841
v -0.228844 2.717716 4.190843
v -0.228844 2.972681 4.190843
v 0.148587 2.717716 4.181272
v 0.148587 2.972681 4.181272
v 1.320622 2.717716 -6.351735
v 1.320622 2.972681 -6.351735
v 1.505615 2.717716 -6.680861
v 1.505615 2.972681 -6.680861
v 1.649748 2.717716 -6.166742
v 1.649748 2.972681 -6.166742
v 1.834741 2.717716 -6.495868
v 1.834741 2.972681 -6.495868
v 1.144865 2.717716 -4.346628
v 1.144865 2.972681 -4.346628
v 1.153053 2.717716 -4.724091
v 1.153053 2.972681 -4.724091
v 1.522328 2.717716 -4.338439
v 1.522328 2.972681 -4.338439
v 1.530517 2.717716 -4.715903
v 1.530517 2.972681 -4.715903
v 1.365605 2.732907 -0.354777
v 1.365605 2.987873 -0.354777
v 1.208781 2.732907 -0.758893
v 1.208781 2.987873 -0.758893
v 1.591928 2.732907 -0.387019
v 1.591928 2.987873 -0.387019
v 1.586292 2.732907 -0.764530
v 1.586292 2.987873 -0.764530
v -0.317220 2.732907 0.744893
v -0.303463 2.987873 0.742352
v -0.631775 2.732907 0.507786
v -0.631775 2.987873 0.507786
v -0.062985 2.732907 0.579592
v -0.062985 2.987873 0.579592
v -0.268790 2.732907 0.263063
v -0.268790 2.987873 0.263063
v -2.847053 2.717716 0.491327
v -2.847053 2.972681 0.491327
v -2.469588 2.717716 0.483156
v -2.469588 2.972681 0.483156
v -2.838882 2.717716 0.868791
v -2.838882 2.972681 0.868791
v -2.461417 2.717716 0.860620
v -2.461417 2.972681 0.860620
v -4.961892 2.717716 2.415404
v -4.961892 2.972681 2.415404
v -4.513824 2.717716 2.413016
v -4.513824 2.972681 2.413016
v -4.959881 2.717716 2.792951
v -4.959881 2.972681 2.792951
v -4.511813 2.717716 2.790563
v -4.511813 2.972681 2.790563
v -5.325634 2.717716 2.417341
v -5.325634 2.972681 2.417341
v -5.323622 2.972681 2.794888
v -5.323622 2.717716 2.794888
v -5.285951 2.717716 6.591757
v -5.285951 2.972681 6.591757
v -4.908433 2.717716 6.586670
v -4.908433 2.972681 6.586670
v -5.280864 2.717716 6.969276
v -5.280864 2.972681 6.969276
v -4.903346 2.717716 6.964189
v -4.903346 2.972681 6.964189
v -3.010654 2.717716 6.586217
v -3.010654 2.972681 6.586217
v -2.633153 2.717716 6.579962
v -2.633153 2.972681 6.579962
v -3.004399 2.717716 6.963718
v -3.004399 2.972681 6.963718
v -2.626899 2.717716 6.957463
v -2.626899 2.972681 6.957463
v -0.492519 2.972681 4.441315
v -0.848095 2.972681 4.260776
v -0.824542 2.717716 4.274908
v -0.492519 2.717716 4.441315
v -4.885485 2.717716 2.414996
v -4.885485 2.972681 2.414996
v -4.883475 2.717716 2.792543
v -4.883475 2.972681 2.792543
v 6.915154 2.717716 1.583632
v 6.915154 2.972681 1.583632
v 7.292706 2.717716 1.583632
v 7.292706 2.972681 1.583632
v 6.915154 2.717716 1.961185
v 6.915154 2.972681 1.961185
v 7.292706 2.717716 1.961185
v 7.292706 2.972681 1.961185
v -0.634891 2.717716 1.955375
v -0.634891 2.972681 1.955375
v -0.257340 2.717716 1.953803
v -0.257340 2.972681 1.953803
v -0.633319 2.717716 2.332924
v -0.633319 2.972681 2.332924
v -0.255768 2.717716 2.331352
v -0.255768 2.972681 2.331352
v 7.274791 -0.373123 -0.834026
v 6.897238 -0.373123 -0.834026
v 7.274791 -0.373123 -0.456473
v 6.897238 -0.373123 -0.456473
v 3.506144 -0.373123 -10.240052
v 3.321152 -0.373123 -9.910927
v 3.835270 -0.373123 -10.055060
v 3.650277 -0.373123 -9.725934
v 10.281613 -0.373123 -6.431738
v 10.096621 -0.373123 -6.102612
v 10.598399 -0.373123 -6.253682
v 10.304763 -0.373123 -5.985621
v -7.433006 -0.373123 -9.563854
v -7.810228 -0.373123 -9.548042
v -7.417192 -0.373123 -9.186633
v -7.794415 -0.373123 -9.170821
v -7.316077 -0.373123 0.547583
v -7.693614 -0.373123 0.551112
v -7.312550 -0.373123 0.925119
v -7.690087 -0.373123 0.928648
v -4.545875 -0.373123 0.519520
v -4.923397 -0.373123 0.524293
v -4.541101 -0.373123 0.897042
v -4.918624 -0.373123 0.901815
v 10.680807 -0.373123 -0.884062
v 10.303323 -0.373123 -0.876861
v 10.688008 -0.373123 -0.506578
v 10.310524 -0.373123 -0.499377
v 10.745025 -0.373123 3.653288
v 10.367540 -0.373123 3.660490
v 10.752226 -0.373123 4.030772
v 10.374742 -0.373123 4.037973
v -1.946789 -0.373123 6.241203
v -2.131781 -0.373123 6.570328
v -1.617663 -0.373123 6.426196
v -1.894810 -0.373123 6.919275
v -0.238416 -0.373123 3.813413
v -0.592144 -0.373123 3.813413
v -0.344727 -0.373123 4.193171
v -0.228844 -0.373123 4.190843
v 0.139015 -0.373123 3.803841
v 0.148587 -0.373123 4.181272
v 1.505615 -0.373123 -6.680861
v 1.320622 -0.373123 -6.351735
v 1.834741 -0.373123 -6.495868
v 1.649748 -0.373123 -6.166742
v 1.153053 -0.373123 -4.724091
v 1.144865 -0.373123 -4.346628
v 1.530517 -0.373123 -4.715903
v 1.522328 -0.373123 -4.338439
v 1.208781 -0.357931 -0.758893
v 1.365605 -0.357931 -0.354777
v 1.586292 -0.357931 -0.764530
v 1.591928 -0.357931 -0.387019
v -0.631775 -0.357931 0.507786
v -0.317220 -0.357931 0.744893
v -0.268790 -0.357931 0.263063
v -0.062985 -0.357931 0.579592
v -2.469588 -0.373123 0.483156
v -2.847053 -0.373123 0.491327
v -2.461417 -0.373123 0.860620
v -2.838882 -0.373123 0.868791
v -4.885485 -0.373123 2.414996
v -4.961892 -0.373123 2.415404
v -4.511813 -0.373123 2.790563
v -4.513824 -0.373123 2.413016
v -4.883475 -0.373123 2.792543
v -4.959881 -0.373123 2.792951
v -5.325634 -0.373123 2.417341
v -5.323622 -0.373123 2.794888
v -4.908433 -0.373123 6.586670
v -5.285951 -0.373123 6.591757
v -4.903346 -0.373123 6.964189
v -5.280864 -0.373123 6.969276
v -2.633153 -0.373123 6.579962
v -3.010654 -0.373123 6.586217
v -2.626899 -0.373123 6.957463
v -3.004399 -0.373123 6.963718
v -0.824542 -0.373123 4.274908
v -0.492519 -0.373123 4.441315
v 7.292706 -0.373123 1.583632
v 6.915154 -0.373123 1.583632
v 7.292706 -0.373123 1.961185
v 6.915154 -0.373123 1.961185
v -0.257340 -0.373123 1.953803
v -0.634891 -0.373123 1.955375
v -0.255768 -0.373123 2.331352
v -0.633319 -0.373123 2.332924
vn -0.0000 -0.0000 -1.0000
vn 0.0141 -0.0000 0.9999
vn -1.0000 -0.0000 0.0088
vn 0.0131 -0.0000 0.9999
vn -0.0000 -0.0000 1.0000
vn -0.0000 1.0000 -0.0000
vn 0.4900 -0.0000 -0.8717
vn -0.4900 -0.0000 0.8717
vn 0.8717 -0.0000 0.4900
vn 0.0166 -0.0000 0.9999
vn -0.0166 -0.0000 -0.9999
vn -1.0000 -0.0000 -0.0003
vn 0.0053 -0.0000 1.0000
vn -0.0419 -0.0000 -0.9991
vn -0.0617 -0.0000 -0.9981
vn -0.9999 -0.0000 0.0104
vn -0.9991 -0.0000 0.0419
vn 0.0097 -0.0000 1.0000
vn 0.0093 -0.0000 1.0000
vn -1.0000 -0.0000 0.0093
vn -0.0126 -0.0000 -0.9999
vn -0.9998 -0.0000 0.0219
vn 0.9998 -0.0000 -0.0191
vn -0.9998 -0.0000 -0.0217
vn 0.0673 -0.0000 0.9977
vn -0.9999 -0.0000 0.0137
vn 1.0000 -0.0000 -0.0053
vn -0.8717 -0.0000 -0.4900
vn -0.9999 -0.0000 0.0135
vn 0.0191 -0.0000 0.9998
vn 0.0140 -0.0000 0.9999
vn 0.0521 -0.0000 0.9986
vn 1.0000 -0.0000 -0.0000
vn 0.0201 -0.0000 0.9998
vn 0.8592 -0.0000 0.5117
vn -0.0254 -0.0000 -0.9997
vn 0.0254 -0.0000 0.9997
vn 0.0217 -0.0000 -0.9998
vn 0.9998 -0.0000 0.0217
vn 0.9998 -0.0000 -0.0179
vn 0.9988 -0.0000 -0.0495
vn -0.0000 1.0000 -0.0042
vn 0.0029 1.0000 -0.0000
vn 0.1410 -0.0000 0.9900
vn -0.0038 0.9999 0.0115
vn -0.5590 -0.0000 -0.8292
vn -0.5688 -0.0000 -0.8224
vn 0.5526 -0.0108 0.8334
vn -0.0216 -0.0000 -0.9998
vn 0.9998 -0.0000 -0.0216
vn 0.0216 -0.0000 0.9998
vn 0.0135 -0.0000 0.9999
vn 0.8700 -0.0000 0.4931
vn -0.0053 -0.0000 -1.0000
vn 0.5474 -0.0000 0.8369
vn -1.0000 -0.0000 0.0053
vn -1.0000 -0.0000 0.0099
vn -0.8685 -0.0000 -0.4957
vn 0.9999 -0.0000 -0.0135
vn -0.9999 -0.0000 0.0166
vn -0.8796 -0.0537 -0.4726
vn -1.0000 -0.0000 -0.0022
vn -0.8931 -0.0000 -0.4498
vn -0.8702 -0.0538 -0.4897
vn 0.9999 -0.0000 -0.0136
vn 0.9998 -0.0000 -0.0180
vn -0.0097 -0.0000 -1.0000
vn 0.9999 -0.0000 -0.0104
vn 0.9999 -0.0000 -0.0153
vn -0.0141 -0.0000 -0.9999
vn 0.9999 -0.0000 -0.0137
vn -0.0140 -0.0000 -0.9999
vn -1.0000 -0.0000 -0.0000
vn 1.0000 -0.0000 -0.0088
vn -0.0131 -0.0000 -0.9999
vn -0.9998 -0.0000 0.0178
vn -1.0000 -0.0000 0.0042
vn -0.0192 -0.0000 -0.9998
vn 1.0000 -0.0000 -0.0042
vn 0.0042 -0.0000 1.0000
vn 0.9987 -0.0272 -0.0441
vn -0.0000 -1.0000 -0.0000
vn -0.0029 -1.0000 -0.0000
vn -0.0000 -1.0000 0.0042
vn 0.0039 -0.9999 -0.0115
vn 0.5451 -0.0000 0.8384
vt 4.789973 1.437833
vt 4.789973 1.692148
vt 5.044288 1.692148
vt 5.044288 1.437833
vt 7.089120 1.437833
vt 7.089120 1.692148
vt 1.445319 1.437833
vt 1.445319 1.692148
vt 0.071130 1.692148
vt 0.071130 1.437833
vt 1.216382 1.707301
vt 1.216382 1.452986
vt 5.056355 1.437833
vt 4.802041 1.437833
vt 4.802041 -1.645116
vt 5.056355 -1.645116
vt 0.071130 5.044288
vt -0.183185 5.044288
vt -0.183185 4.789973
vt 0.071130 4.789973
vt -6.063488 -4.862701
vt -5.809396 -4.852049
vt -6.297272 2.381166
vt -6.518967 2.505774
vt 2.505774 1.437833
vt 2.505774 1.692148
vt 2.727469 1.692148
vt 2.727469 1.437833
vt 6.945037 1.437833
vt 6.945037 1.692148
vt 2.602860 1.692148
vt 2.602860 1.437833
vt -3.996931 1.692148
vt -3.996931 1.437833
vt -6.172663 1.437833
vt -6.172663 1.692148
vt -1.768156 1.437833
vt -2.914750 1.437833
vt -2.914750 -1.645116
vt -1.768156 -1.645116
vt -6.394358 2.727469
vt -6.172663 2.602860
vt -1.883859 1.437833
vt -1.629580 1.437833
vt -1.629580 -1.645116
vt -1.883859 -1.645116
vt 7.069646 1.437833
vt 7.069646 1.692148
vt 7.283029 1.692148
vt 7.283029 1.437833
vt -0.212038 1.437833
vt -0.212038 1.692148
vt -3.653235 1.692148
vt -3.653235 1.437833
vt 7.085239 1.437833
vt 7.085239 1.692148
vt -3.145368 1.437833
vt -3.196835 1.437833
vt -3.196835 -1.645116
vt -3.145368 -1.645116
vt -3.833797 7.283029
vt -3.953734 7.069646
vt -3.732039 6.945037
vt -3.653235 7.085239
vt -5.116793 1.437833
vt -5.116793 1.692148
vt -4.862701 1.692148
vt -4.862701 1.437833
vt 0.749827 1.437833
vt 0.749827 1.692148
vt -5.798746 1.692148
vt -5.798746 1.437833
vt -6.052837 1.692148
vt -6.052837 1.437833
vt 7.069646 -1.645116
vt 2.727469 -1.645116
vt -6.052837 -5.116793
vt -5.798746 -5.106141
vt -4.862701 -1.645116
vt -5.116793 -1.645116
vt -3.169044 1.437833
vt -3.169044 1.692148
vt -4.781563 1.692148
vt -4.781563 1.437833
vt -5.035867 1.692148
vt -5.035867 1.437833
vt 1.004131 1.437833
vt 1.004131 1.692148
vt -2.917965 1.437833
vt -1.773660 1.437833
vt -1.773660 -1.645116
vt -2.917965 -1.645116
vt 1.001754 -4.781563
vt 0.747450 -4.783939
vt 0.749827 -5.038243
vt 1.004131 -5.035867
vt -3.172259 1.437833
vt -3.172259 1.692148
vt -2.917965 1.692148
vt -1.768156 1.692148
vt -2.914750 1.692148
vt 2.005317 1.437833
vt 2.005317 1.692148
vt 0.986057 1.692148
vt 0.986057 1.437833
vt 2.839414 1.437833
vt 3.093683 1.437833
vt 3.093683 -1.645116
vt 2.839414 -1.645116
vt -2.549229 1.437833
vt -2.803484 1.437833
vt -2.803484 -1.645116
vt -2.549229 -1.645116
vt 0.982842 -2.914750
vt 0.728547 -2.917965
vt 0.731762 -3.172259
vt 0.986057 -3.169044
vt 2.381166 1.437833
vt -4.852049 1.437833
vt -4.852049 -1.645116
vt 2.381166 -1.645116
vt -0.216889 1.437833
vt -0.216889 1.692148
vt 0.037380 1.692148
vt 0.037380 1.437833
vt 2.844265 1.437833
vt 2.844265 1.692148
vt 0.042230 1.692148
vt 0.042230 1.437833
vt 2.003983 1.437833
vt 2.258294 1.437833
vt 2.258294 -1.645116
vt 2.003983 -1.645116
vt -4.121539 1.437833
vt -6.297272 1.437833
vt -6.297272 -1.645116
vt -4.121539 -1.645116
vt 0.037380 7.343389
vt -0.216889 7.338538
vt -0.212038 7.084269
vt 0.042230 7.089120
vt 5.073023 1.437833
vt 4.818731 1.437833
vt 4.818731 -1.645116
vt 5.073023 -1.645116
vt 2.839414 1.692148
vt 3.093683 1.692148
vt 7.386645 1.437833
vt 7.386645 1.692148
vt 7.132376 1.692148
vt 7.132376 1.437833
vt 0.244166 1.692148
vt 0.244166 1.437833
vt 6.945037 -1.645116
vt 7.085239 -1.645116
vt 3.093683 7.386645
vt 2.839414 7.381794
vt 2.844265 7.127525
vt 3.098534 7.132376
vt 4.804296 1.437833
vt 4.804296 1.692148
vt 4.582602 1.692148
vt 4.582602 1.437833
vt 4.707211 1.437833
vt 4.707211 1.692148
vt 5.039343 1.692148
vt 5.039343 1.437833
vt -1.625366 1.692148
vt -1.625366 1.437833
vt -1.132241 1.437833
vt -1.132241 1.692148
vt 1.699634 1.437833
vt 1.699634 -1.645116
vt 1.445319 -1.645116
vt 4.707211 -0.945558
vt 4.582602 -1.167253
vt 4.804296 -1.291862
vt 5.039343 -1.132241
vt -3.172259 -1.645116
vt -0.016515 1.692148
vt -0.016515 1.437833
vt -0.254781 1.437833
vt -0.254781 1.692148
vt -0.010067 1.437833
vt -0.010067 1.692148
vt -0.088124 1.692148
vt -0.088124 1.437833
vt 3.203073 1.437833
vt 3.203073 1.692148
vt 3.370219 1.692148
vt 3.370219 1.437833
vt 0.237719 1.692148
vt 0.237719 1.437833
vt 2.940825 0.237719
vt 3.195058 0.244166
vt 3.201505 -0.010067
vt 2.947272 -0.016515
vt 2.986165 -0.254781
vt 3.203073 -0.088124
vt -3.996931 -1.645116
vt -6.172663 -1.645116
vt -3.899844 1.437833
vt -3.899844 1.692148
vt -4.121539 1.692148
vt -4.121539 1.158243
vt -3.996931 1.379938
vt -3.775236 1.692148
vt -3.775236 1.437833
vt 1.255329 1.437833
vt 1.255329 1.692148
vt 1.033634 1.692148
vt 1.033634 1.437833
vt 1.033634 -1.645116
vt 1.255329 -1.645116
vt -3.899844 1.033634
vt -3.775236 1.255329
vt -2.549229 1.692148
vt -2.803484 1.692148
vt 0.920761 1.437833
vt 0.920761 1.692148
vt 1.175016 1.692148
vt 1.175016 1.437833
vt -2.797969 1.437833
vt -2.797969 1.692148
vt -2.543714 1.692148
vt -2.543714 1.437833
vt -0.136373 1.707301
vt -0.136373 1.452986
vt 0.880356 1.452986
vt 1.694662 1.437833
vt 1.694662 -1.645116
vt 0.880356 -1.629963
vt -2.797969 1.175016
vt -2.803484 0.920761
vt -2.549229 0.915246
vt -2.543714 1.169501
vt 0.555801 -0.036974
vt 0.769011 0.101653
vt 0.139631 1.063934
vt -0.132576 0.958299
vt -0.136373 1.212586
vt 0.117914 1.216382
vt 1.063934 1.707301
vt 1.063934 1.452986
vt 2.505774 -1.645116
vt 1.695721 -0.283575
vt 1.694662 -0.029262
vt 0.878644 -0.060329
vt 0.720644 -0.281476
vt -0.281476 1.452986
vt -0.281476 1.707301
vt -0.036974 1.707301
vt -0.036974 1.452986
vt 0.958299 1.707301
vt 0.958299 1.452986
vt 0.101653 1.452986
vt 0.101653 1.707301
vt -0.060329 1.707301
vt -0.069596 1.452986
vt 0.749827 -1.645116
vt 1.004131 -1.645116
vt -1.773660 1.692148
vt -1.519404 1.692148
vt -1.519404 1.437833
vt 0.704053 1.437833
vt 0.704053 1.692148
vt 0.958308 1.692148
vt 0.958308 1.437833
vt -1.513901 1.437833
vt -1.513901 1.692148
vt -3.158753 1.437833
vt -3.413044 1.437833
vt -3.413044 -1.645116
vt -3.158753 -1.645116
vt 4.707211 -1.645116
vt 3.370219 -1.645116
vt 0.958308 -1.513901
vt 0.704053 -1.519404
vt 0.709556 -1.773660
vt 0.963812 -1.768156
vt 1.063934 -1.629963
vt 1.216382 -1.629963
vt 2.003983 1.692148
vt 2.258294 1.692148
vt -3.145368 1.692148
vt -3.196835 1.692148
vt -3.198189 1.437833
vt -3.146723 1.437833
vt -3.146723 -1.645116
vt -3.198189 -1.645116
vt 0.101653 -1.629963
vt 2.259628 -3.145368
vt 2.005317 -3.146723
vt 2.005591 -3.198189
vt 2.259902 -3.196835
vt 2.261207 1.437833
vt 2.261207 1.692148
vt 2.006896 1.692148
vt 2.006896 1.437833
vt 2.006896 -3.443201
vt 2.261207 -3.441846
vt 4.818731 1.692148
vt -3.198189 1.692148
vt -3.443201 1.437833
vt -3.443201 1.692148
vt 3.258130 1.437833
vt 3.258130 -1.645116
vt 4.582602 -1.645116
vt 4.815304 1.437833
vt 4.815304 1.692148
vt 5.069596 1.692148
vt 5.069596 1.437833
vt -3.158753 1.692148
vt -3.413044 1.692148
vt 5.073023 1.692148
vt -0.088124 -1.645116
vt -0.010067 -1.645116
vt 5.069596 -3.158753
vt 4.815304 -3.162180
vt 4.818731 -3.416471
vt 5.073023 -3.413044
vt -1.883859 1.692148
vt -1.629580 1.692148
vt 4.810786 -1.629580
vt 5.065065 -1.625366
vt -1.879646 1.692148
vt -1.879646 1.437833
vt 5.069279 1.437833
vt 5.069279 1.692148
vt 4.814999 1.692148
vt 4.814999 1.437833
vt -3.775236 -1.645116
vt 4.814999 -1.883859
vt 5.069279 -1.879646
vt 3.258130 -0.411322
vt 3.370219 -0.187675
vt 2.986165 1.692148
vt 2.986165 1.437833
vt 3.258130 1.692148
vt 1.695721 1.437833
vt 0.720644 1.452986
vt 0.720644 -1.629963
vt 1.695721 -1.645116
vt 2.986165 -1.645116
vt 2.258294 -2.895021
vt 2.003983 -2.896376
vt -0.016515 -1.645116
vt -0.254781 -1.645116
vt -2.895021 1.437833
vt -2.895021 1.692148
vt -3.146723 1.692148
vt 2.259902 1.437833
vt 2.259902 1.692148
vt 0.982842 1.437833
vt 0.982842 1.692148
vt -4.783939 1.437833
vt -4.783939 1.692148
vt 0.747450 1.692148
vt 0.747450 1.437833
vt -5.809396 1.437833
vt -5.809396 1.692148
vt -4.852049 1.692148
vt 2.381166 1.692148
vt -5.798746 -1.645116
vt -3.833797 1.437833
vt -3.833797 1.692148
vt 7.084269 1.692148
vt 7.084269 1.437833
vt 7.127525 1.437833
vt 7.127525 -1.645116
vt 0.237719 -1.645116
vt 7.127525 1.692148
vt -5.035867 -1.645116
vt -4.781563 -1.645116
vt 5.056355 1.692148
vt 4.802041 1.692148
vt 1.699634 1.692148
vt 5.069596 -1.645116
vt 4.815304 -1.645116
vt 1.699634 5.056355
vt 1.445319 5.056355
vt 1.445319 4.802041
vt 1.699634 4.802041
vt 0.747450 -1.645116
vt -5.809396 -1.645116
vt 1.212586 1.452986
vt 1.212586 1.707301
vt 7.283029 -1.645116
vt -0.132576 1.452986
vt -0.132576 1.707301
vt 0.244166 -1.645116
vt 7.132376 -1.645116
vt 0.958299 -1.629963
vt -0.036974 -1.629963
vt -6.297272 1.692148
vt 1.950034 1.437833
vt 1.950034 -1.645116
vt -1.291862 1.692148
vt -1.291862 1.437833
vt 1.695721 1.692148
vt 0.720644 1.707301
vt 1.694662 1.692148
vt 1.948975 1.692148
vt 1.948975 1.437833
vt -0.028203 1.437833
vt -0.028203 1.692148
vt -0.282516 1.692148
vt -0.282516 1.437833
vt 3.203073 -1.645116
vt 1.948975 -0.028203
vt 1.950034 -0.282516
vt 0.878644 1.707301
vt -0.132576 -1.629963
vt 1.950034 1.692148
vt 0.880356 -0.069596
vt -0.281476 -1.629963
vt 2.602860 -1.645116
vt -2.895021 -1.645116
vt 7.386645 -1.645116
vt 1.175016 -1.645116
vt 0.920761 -1.645116
vt -0.216889 -1.645116
vt -3.833797 -1.645116
vt -3.653235 -1.645116
vt -0.212038 -1.645116
vt -1.625366 -1.645116
vt -1.132241 -1.645116
vt 0.071130 -1.645116
vt -2.543714 -1.645116
vt -2.797969 -1.645116
vt 2.259902 -1.645116
vt -1.291862 -1.645116
vt -0.069596 -1.629963
vt 2.261207 -1.645116
vt 4.804296 -1.645116
vt -1.879646 -1.645116
vt 7.084269 -1.645116
vt 5.044288 -1.645116
vt 2.006896 -1.645116
vt -1.519404 -1.645116
vt 7.089120 -1.645116
vt -6.052837 -1.645116
vt 0.982842 -1.645116
vt 4.814999 -1.645116
vt 5.069279 -1.645116
vt 0.986057 -1.645116
vt 2.005317 -1.645116
vt 1.948975 -1.645116
vt -3.443201 -1.645116
vt 4.789973 -1.645116
vt 0.037380 -1.645116
vt 1.212586 -1.629963
vt 0.958308 -1.645116
vt 0.704053 -1.645116
vt 0.042230 -1.645116
vt 2.844265 -1.645116
vt -3.899844 -1.645116
vt -4.783939 -1.645116
vt 5.039343 -1.645116
vt -0.282516 -1.645116
vt -0.028203 -1.645116
vt -3.169044 -1.645116
vt -0.136373 -1.629963
vt -1.513901 -1.645116
s 0
usemtl 
f 1/1/1 2/2/1 4/3/1 3/4/1
f 53/5/2 54/6/2 8/3/2 7/4/2
f 161/7/3 162/8/3 6/9/3 5/10/3
f 106/11/4 105/12/4 5/1/4 6/2/4
f 167/13/5 165/14/5 260/15/5 259/16/5
f 8/17/6 4/18/6 2/19/6 6/20/6
f 28/21/6 32/22/6 10/23/6 12/24/6
f 11/25/7 12/26/7 16/27/7 15/28/7
f 17/29/8 18/30/8 14/31/8 13/32/8
f 92/33/9 91/34/9 13/35/9 14/36/9
f 121/37/10 47/38/10 199/39/10 238/40/10
f 16/41/6 12/24/6 10/23/6 14/42/6
f 145/43/11 147/44/11 251/45/11 252/46/11
f 19/47/7 20/48/7 24/49/7 23/50/7
f 49/51/12 50/52/12 22/53/12 21/54/12
f 21/55/8 22/56/8 18/30/8 17/29/8
f 159/57/13 129/58/13 244/59/13 243/60/13
f 24/61/6 20/62/6 18/63/6 22/64/6
f 25/65/14 26/66/14 28/67/14 27/68/14
f 27/68/15 28/67/15 12/26/15 11/25/15
f 33/69/16 34/70/16 30/71/16 29/72/16
f 29/72/17 30/71/17 26/73/17 25/74/17
f 15/28/7 19/47/7 185/75/7 183/76/7
f 32/22/6 28/21/6 26/77/6 30/78/6
f 25/65/14 27/68/14 189/79/14 190/80/14
f 45/81/18 46/82/18 40/83/18 39/84/18
f 39/84/19 40/83/19 38/85/19 37/86/19
f 37/87/20 38/88/20 34/70/20 33/69/20
f 43/89/11 117/90/11 236/91/11 197/92/11
f 40/93/6 36/94/6 34/95/6 38/96/6
f 41/97/21 42/98/21 44/99/21 43/89/21
f 121/37/10 122/100/10 48/101/10 47/38/10
f 157/102/22 158/103/22 46/104/22 45/105/22
f 59/106/23 63/107/23 207/108/23 205/109/23
f 93/110/24 95/111/24 223/112/24 224/113/24
f 48/114/6 44/115/6 42/116/6 46/117/6
f 9/118/25 31/119/25 191/120/25 182/121/25
f 51/122/23 52/123/23 56/124/23 55/125/23
f 57/126/26 58/127/26 54/128/26 53/129/26
f 127/130/27 131/131/27 241/132/27 242/133/27
f 87/134/28 9/135/28 182/136/28 219/137/28
f 56/138/6 52/139/6 50/140/6 54/141/6
f 141/142/29 137/143/29 248/144/29 250/145/29
f 59/106/23 60/146/23 64/147/23 63/107/23
f 63/148/30 64/149/30 62/150/30 61/151/30
f 84/152/31 83/153/31 61/151/31 62/150/31
f 21/55/8 17/29/8 186/154/8 188/155/8
f 64/156/6 60/157/6 58/158/6 62/159/6
f 65/160/28 66/161/28 68/162/28 67/163/28
f 71/164/9 72/165/9 70/166/9 69/167/9
f 152/168/32 151/169/32 69/170/32 70/171/32
f 163/7/33 167/172/33 259/173/33 257/174/33
f 72/175/6 68/176/6 66/177/6 70/178/6
f 41/97/21 43/89/21 197/92/21 198/179/21
f 78/180/1 77/181/1 76/182/1 75/183/1
f 81/184/34 82/185/34 74/186/34 73/187/34
f 73/188/35 74/189/35 153/190/35 156/191/35
f 77/181/36 78/180/36 80/192/36 79/193/36
f 80/194/6 84/195/6 62/159/6 58/158/6
f 83/153/37 84/152/37 82/185/37 81/184/37
f 82/196/6 78/197/6 75/198/6 74/199/6
f 13/35/9 91/34/9 221/200/9 184/201/9
f 84/195/6 80/194/6 78/197/6 82/196/6
f 85/202/28 86/203/28 88/204/28 87/134/28
f 88/205/6 92/206/6 14/42/6 10/23/6
f 91/34/9 92/33/9 90/207/9 89/208/9
f 89/209/8 90/210/8 86/211/8 85/212/8
f 89/209/8 85/212/8 220/213/8 222/214/8
f 92/206/6 88/205/6 86/215/6 90/216/6
f 93/110/24 94/217/24 96/218/24 95/111/24
f 95/219/38 96/220/38 100/221/38 99/222/38
f 99/223/39 100/224/39 98/225/39 97/226/39
f 108/227/40 107/228/40 97/226/40 98/225/40
f 109/229/41 171/230/41 261/231/41 232/232/41
f 100/233/6 96/234/6 94/235/6 98/236/6
f 116/237/6 114/238/6 102/239/6 104/240/6
f 104/240/42 108/241/42 98/236/42 94/235/42
f 108/241/43 106/242/43 6/20/43 2/19/43
f 105/12/44 106/11/44 102/243/44 101/244/44
f 27/68/15 11/25/15 181/245/15 189/79/15
f 108/241/6 104/240/6 102/239/6 106/242/6
f 170/246/45 172/247/45 110/248/45 112/249/45
f 111/250/46 112/251/46 116/252/46 115/253/46
f 115/253/47 116/252/47 104/254/47 103/255/47
f 113/256/48 114/257/48 110/258/48 109/259/48
f 37/87/20 33/69/20 194/260/20 196/261/20
f 116/237/6 112/249/6 110/248/6 114/238/6
f 117/90/49 118/262/49 120/263/49 119/264/49
f 119/265/50 120/266/50 124/267/50 123/268/50
f 123/269/51 124/270/51 122/100/51 121/37/51
f 143/271/52 141/272/52 250/273/52 249/274/52
f 156/191/53 71/164/53 211/275/53 256/276/53
f 124/277/6 120/278/6 118/279/6 122/280/6
f 105/12/44 101/244/44 228/281/44 230/282/44
f 127/130/27 128/283/27 132/284/27 131/131/27
f 159/57/13 160/285/13 130/286/13 129/58/13
f 125/287/54 157/288/54 239/289/54 240/290/54
f 101/244/55 113/256/55 234/291/55 228/281/55
f 160/292/6 158/293/6 126/294/6 130/295/6
f 136/296/56 135/297/56 134/298/56 133/299/56
f 130/295/6 126/294/6 134/300/6 135/301/6
f 137/143/57 138/302/57 135/297/57 136/296/57
f 126/303/54 125/287/54 133/304/54 134/305/54
f 67/163/58 155/306/58 255/307/58 209/308/58
f 139/309/59 140/310/59 144/311/59 143/312/59
f 143/271/52 144/313/52 142/314/52 141/272/52
f 141/142/29 142/315/29 138/302/29 137/143/29
f 81/184/34 73/187/34 215/316/34 216/317/34
f 144/318/6 140/319/6 138/320/6 142/321/6
f 145/43/11 146/322/11 148/323/11 147/44/11
f 148/324/6 152/325/6 70/178/6 66/177/6
f 151/169/10 152/168/10 150/326/10 149/327/10
f 149/328/60 150/329/60 146/330/60 145/331/60
f 91/34/9 89/208/9 222/332/9 221/200/9
f 152/325/6 148/324/6 146/333/6 150/334/6
f 74/199/6 75/198/6 154/335/6 153/336/6
f 75/337/61 76/338/61 155/306/61 154/339/61
f 169/340/62 111/341/62 231/342/62 262/343/62
f 155/306/63 76/338/63 214/344/63 255/307/63
f 156/191/53 153/190/53 72/165/53 71/164/53
f 153/336/6 154/335/6 68/176/6 72/175/6
f 154/339/64 155/306/64 67/163/64 68/162/64
f 132/345/6 128/346/6 158/293/6 160/292/6
f 76/182/1 77/181/1 213/347/1 214/348/1
f 131/349/13 132/350/13 160/285/13 159/57/13
f 125/287/54 126/303/54 158/351/54 157/288/54
f 138/320/6 140/319/6 130/295/6 135/301/6
f 140/310/65 139/309/65 129/352/65 130/353/65
f 158/293/6 128/346/6 48/114/6 46/117/6
f 128/283/66 127/130/66 47/354/66 48/355/66
f 46/117/6 42/116/6 36/94/6 40/93/6
f 42/98/67 41/97/67 35/356/67 36/357/67
f 34/95/6 36/94/6 32/22/6 30/78/6
f 36/358/68 35/359/68 31/360/68 32/361/68
f 32/362/25 31/119/25 9/118/25 10/363/25
f 33/69/16 29/72/16 192/364/16 194/260/16
f 18/63/6 20/62/6 16/41/6 14/42/6
f 20/48/7 19/47/7 15/28/7 16/27/7
f 50/140/6 52/139/6 24/61/6 22/64/6
f 52/123/69 51/122/69 23/365/69 24/366/69
f 54/141/6 50/140/6 4/18/6 8/17/6
f 50/367/70 49/368/70 3/4/70 4/3/70
f 58/158/6 60/157/6 56/138/6 54/141/6
f 60/146/71 59/106/71 55/125/71 56/124/71
f 79/193/72 57/369/72 206/370/72 217/371/72
f 79/193/72 80/192/72 58/372/72 57/369/72
f 39/84/19 37/86/19 196/373/19 195/374/19
f 167/13/5 168/375/5 166/376/5 165/14/5
f 165/172/73 166/377/73 162/8/73 161/7/73
f 139/309/59 143/312/59 249/378/59 247/379/59
f 168/380/6 164/381/6 162/382/6 166/383/6
f 162/382/6 164/381/6 8/17/6 6/20/6
f 164/8/74 163/7/74 7/10/74 8/9/74
f 31/360/68 35/359/68 193/384/68 191/385/68
f 107/386/75 108/387/75 2/2/75 1/1/75
f 19/47/7 23/50/7 187/388/7 185/75/7
f 103/389/76 104/390/76 94/217/76 93/110/76
f 114/257/55 113/256/55 101/244/55 102/243/55
f 61/151/31 83/153/31 218/391/31 208/392/31
f 115/253/47 103/255/47 227/393/47 233/394/47
f 87/134/28 88/204/28 10/395/28 9/135/28
f 122/280/6 118/279/6 44/115/6 48/114/6
f 118/262/11 117/90/11 43/89/11 44/99/11
f 173/396/77 169/340/77 262/343/77 264/397/77
f 147/44/78 148/323/78 66/398/78 65/399/78
f 169/340/62 170/400/62 112/401/62 111/341/62
f 171/230/79 172/402/79 176/403/79 175/404/79
f 175/405/80 176/406/80 174/407/80 173/408/80
f 73/188/35 156/191/35 256/276/35 215/409/35
f 176/410/6 172/247/6 170/246/6 174/411/6
f 172/402/81 171/230/81 109/229/81 110/412/81
f 103/389/76 93/110/76 224/113/76 227/413/76
f 169/340/77 173/396/77 174/414/77 170/400/77
f 164/8/33 168/377/33 167/172/33 163/7/33
f 177/18/82 179/17/82 180/20/82 178/19/82
f 181/24/82 183/41/82 184/42/82 182/23/82
f 185/62/82 186/63/82 184/42/82 183/41/82
f 185/62/82 187/61/82 188/64/82 186/63/82
f 189/21/82 191/22/82 192/78/82 190/77/82
f 193/94/82 194/95/82 192/78/82 191/22/82
f 193/94/82 195/93/82 196/96/82 194/95/82
f 198/116/82 200/117/82 195/93/82 193/94/82
f 197/115/82 199/114/82 200/117/82 198/116/82
f 201/139/82 202/140/82 188/64/82 187/61/82
f 202/140/82 204/141/82 179/17/82 177/18/82
f 201/139/82 203/138/82 204/141/82 202/140/82
f 205/157/82 206/158/82 204/141/82 203/138/82
f 205/157/82 207/156/82 208/159/82 206/158/82
f 209/176/82 211/175/82 212/178/82 210/177/82
f 213/197/82 216/196/82 215/199/82 214/198/82
f 217/194/82 218/195/82 216/196/82 213/197/82
f 219/205/82 221/206/82 222/216/82 220/215/82
f 223/234/82 225/233/82 226/236/82 224/235/82
f 227/240/82 229/241/82 230/242/82 228/239/82
f 231/249/82 233/237/82 234/238/82 232/415/82
f 236/279/82 238/280/82 199/114/82 197/115/82
f 235/278/82 237/277/82 238/280/82 236/279/82
f 242/346/82 239/293/82 200/117/82 199/114/82
f 240/294/82 244/295/82 246/301/82 245/300/82
f 239/293/82 243/292/82 244/295/82 240/294/82
f 247/319/82 248/320/82 246/301/82 244/295/82
f 247/319/82 249/318/82 250/321/82 248/320/82
f 251/324/82 253/325/82 254/334/82 252/333/82
f 214/198/82 215/199/82 256/336/82 255/335/82
f 255/335/82 256/336/82 211/175/82 209/176/82
f 242/346/82 241/345/82 243/292/82 239/293/82
f 191/22/82 189/21/82 181/24/82 182/23/82
f 218/195/82 217/194/82 206/158/82 208/159/82
f 257/381/82 258/382/82 180/20/82 179/17/82
f 257/381/82 259/380/82 260/383/82 258/382/82
f 230/242/83 229/241/83 178/19/83 180/20/83
f 229/241/84 227/240/84 224/235/84 226/236/84
f 234/238/82 233/237/82 227/240/82 228/239/82
f 221/206/82 219/205/82 182/23/82 184/42/82
f 253/325/82 251/324/82 210/177/82 212/178/82
f 261/247/82 263/410/82 264/411/82 262/246/82
f 261/247/85 262/246/85 231/249/85 232/415/85
f 111/250/46 115/253/46 233/394/46 231/416/46
f 17/29/8 13/32/8 184/417/8 186/154/8
f 77/181/36 79/193/36 217/371/36 213/347/36
f 131/349/13 159/57/13 243/60/13 241/418/13
f 63/148/30 61/151/30 208/392/30 207/419/30
f 95/219/38 99/222/38 225/420/38 223/421/38
f 165/172/73 161/7/73 258/174/73 260/173/73
f 23/365/69 51/122/69 201/422/69 187/423/69
f 49/51/12 21/54/12 188/424/12 202/425/12
f 69/170/32 151/169/32 253/426/32 212/427/32
f 7/10/74 163/7/74 257/174/74 179/428/74
f 11/25/7 15/28/7 183/76/7 181/245/7
f 99/223/39 97/226/39 226/429/39 225/430/39
f 129/352/65 139/309/65 247/379/65 244/431/65
f 147/44/78 65/399/78 210/432/78 251/45/78
f 161/7/3 5/10/3 180/428/3 258/174/3
f 113/256/86 109/259/86 232/433/86 234/291/86
f 137/143/57 136/296/57 246/434/57 248/144/57
f 65/160/28 67/163/28 209/308/28 210/435/28
f 151/169/10 149/327/10 254/436/10 253/426/10
f 3/4/70 49/368/70 202/437/70 177/438/70
f 83/153/37 81/184/37 216/317/37 218/391/37
f 136/296/56 133/299/56 245/439/56 246/434/56
f 117/90/49 119/264/49 235/440/49 236/91/49
f 53/5/2 7/4/2 179/438/2 204/441/2
f 29/72/17 25/74/17 190/442/17 192/364/17
f 47/354/66 127/130/66 242/133/66 199/443/66
f 149/328/60 145/331/60 252/444/60 254/445/60
f 157/102/22 45/105/22 200/446/22 239/447/22
f 171/230/79 175/404/79 263/448/79 261/231/79
f 133/304/54 125/287/54 240/290/54 245/449/54
f 5/1/4 105/12/4 230/282/4 180/450/4
f 55/125/71 59/106/71 205/109/71 203/451/71
f 107/386/75 1/1/75 178/450/75 229/452/75
f 119/265/50 123/268/50 237/453/50 235/454/50
f 57/126/26 53/129/26 204/455/26 206/456/26
f 85/202/28 87/134/28 219/137/28 220/457/28
f 51/122/23 55/125/23 203/451/23 201/422/23
f 35/356/67 41/97/67 198/179/67 193/458/67
f 71/164/9 69/167/9 212/459/9 211/275/9
f 175/405/80 173/408/80 264/460/80 263/461/80
f 45/81/18 39/84/18 195/374/18 200/462/18
f 97/226/40 107/228/40 229/463/40 226/429/40
f 123/269/51 121/37/51 238/40/51 237/464/51
f 1/1/1 3/4/1 177/438/1 178/450/1
o Floor
v -11.449244 0.000000 10.187207
v 12.729875 0.000000 10.240336
v -11.402101 0.000000 -11.268538
v 12.777019 0.000000 -11.215408
v -11.402101 -0.505327 -11.268538
v -11.449244 -0.505327 10.187207
v 12.729875 -0.505327 10.240336
v 12.777019 -0.505327 -11.215408
vn -0.0000 1.0000 -0.0000
vn -0.0000 -1.0000 -0.0000
vn -1.0000 -0.0000 -0.0022
vn 0.0022 -0.0000 -1.0000
vn -0.0022 -0.0000 1.0000
vn 1.0000 -0.0000 0.0022
vt -17.683167 -17.683167
vt 18.683167 -17.683167
vt 18.683167 18.683167
vt -17.683167 18.683167
vt 18.683167 0.951660
vt 18.683167 0.048340
vt -17.683167 0.048340
vt -17.683167 0.951660
s 0
usemtl Parquet_Wood_Floor_Brown
f 265/465/87 266/466/87 268/467/87 267/468/87
f 270/465/88 269/468/88 272/467/88 271/466/88
f 267/469/89 269/470/89 270/471/89 265/472/89
f 268/469/90 272/470/90 269/471/90 267/472/90
f 265/472/91 270/471/91 271/470/91 266/469/91
f 266/472/92 271/471/92 272/470/92 268/469/92
