{
  "accessors": [
    {
      "bufferView": 2,
      "componentType": 5126,
      "count": 13111,
      "max": [
        -1.0826606750488281,
        4.680296897888184,
        0.28177520632743835
      ],
      "min": [
        -2.482163906097412,
        3.5754408836364746,
        -0.5053582191467285
      ],
      "type": "VEC3"
    },
    {
      "bufferView": 2,
      "byteOffset": 157332,
      "componentType": 5126,
      "count": 13111,
      "max": [
        0.9996820092201233,
        0.9999819993972778,
        0.9999749064445496
      ],
      "min": [
        -0.9999103546142578,
        -0.9999673366546631,
        -0.9997760057449341
      ],
      "type": "VEC3"
    },
    {
      "bufferView": 3,
      "componentType": 5126,
      "count": 13111,
      "max": [
        0.9999021887779236,
        0.9897336959838867,
        0.9993475079536438,
        1.0
      ],
      "min": [
        -0.9998829960823059,
        -0.9682959914207458,
        -0.9999768137931824,
        1.0
      ],
      "type": "VEC4"
    },
    {
      "bufferView": 1,
      "componentType": 5126,
      "count": 13111,
      "max": [
        0.9837617874145508,
        0.5447436571121216
      ],
      "min": [
        0.012065410614013672,
        0.5311468839645386
      ],
      "type": "VEC2"
    },
    {
      "bufferView": 1,
      "byteOffset": 104888,
      "componentType": 5126,
      "count": 13111,
      "max": [
        0.9837617874145508,
        0.5447436571121216
      ],
      "min": [
        0.012065410614013672,
        0.5311468839645386
      ],
      "type": "VEC2"
    },
    {
      "bufferView": 1,
      "byteOffset": 209776,
      "componentType": 5126,
      "count": 13111,
      "max": [
        0.9837617874145508,
        0.5447436571121216
      ],
      "min": [
        0.012065410614013672,
        0.5311468839645386
      ],
      "type": "VEC2"
    },
    {
      "bufferView": 1,
      "byteOffset": 314664,
      "componentType": 5126,
      "count": 13111,
      "max": [
        0.9837617874145508,
        0.5447436571121216
      ],
      "min": [
        0.012065410614013672,
        0.5311468839645386
      ],
      "type": "VEC2"
    },
    {
      "bufferView": 1,
      "byteOffset": 419552,
      "componentType": 5126,
      "count": 13111,
      "max": [
        0.9837617874145508,
        0.5447436571121216
      ],
      "min": [
        0.012065410614013672,
        0.5311468839645386
      ],
      "type": "VEC2"
    },
    {
      "bufferView": 0,
      "componentType": 5125,
      "count": 69840,
      "type": "SCALAR"
    },
    {
      "bufferView": 2,
      "byteOffset": 314664,
      "componentType": 5126,
      "count": 13107,
      "max": [
        -1.0905638933181763,
        4.679893493652344,
        0.30223262310028076
      ],
      "min": [
        -2.4584879875183105,
        3.5516409873962402,
        -0.4950236976146698
      ],
      "type": "VEC3"
    },
    {
      "bufferView": 2,
      "byteOffset": 471948,
      "componentType": 5126,
      "count": 13107,
      "max": [
        0.9996705055236816,
        0.9999803304672241,
        0.9999732375144958
      ],
      "min": [
        -0.9996576905250549,
        -0.9999534487724304,
        -0.999900758266449
      ],
      "type": "VEC3"
    },
    {
      "bufferView": 3,
      "byteOffset": 209776,
      "componentType": 5126,
      "count": 13107,
      "max": [
        0.9997643232345581,
        0.9873181581497192,
        0.9999658465385437,
        1.0
      ],
      "min": [
        -0.9999852776527405,
        -0.9944573640823364,
        -0.9998236298561096,
        1.0
      ],
      "type": "VEC4"
    },
    {
      "bufferView": 1,
      "byteOffset": 524440,
      "componentType": 5126,
      "count": 13107,
      "max": [
        0.9874891042709351,
        0.6113077998161316
      ],
      "min": [
        0.01206555962562561,
        0.5963445901870728
      ],
      "type": "VEC2"
    },
    {
      "bufferView": 1,
      "byteOffset": 629296,
      "componentType": 5126,
      "count": 13107,
      "max": [
        0.9874891042709351,
        0.6113077998161316
      ],
      "min": [
        0.01206555962562561,
        0.5963445901870728
      ],
      "type": "VEC2"
    },
    {
      "bufferView": 1,
      "byteOffset": 734152,
      "componentType": 5126,
      "count": 13107,
      "max": [
        0.9874891042709351,
        0.6113077998161316
      ],
      "min": [
        0.01206555962562561,
        0.5963445901870728
      ],
      "type": "VEC2"
    },
    {
      "bufferView": 1,
      "byteOffset": 839008,
      "componentType": 5126,
      "count": 13107,
      "max": [
        0.9874891042709351,
        0.6113077998161316
      ],
      "min": [
        0.01206555962562561,
        0.5963445901870728
      ],
      "type": "VEC2"
    },
    {
      "bufferView": 1,
      "byteOffset": 943864,
      "componentType": 5126,
      "count": 13107,
      "max": [
        0.9874891042709351,
        0.6113077998161316
      ],
      "min": [
        0.01206555962562561,
        0.5963445901870728
      ],
      "type": "VEC2"
    },
    {
      "bufferView": 0,
      "byteOffset": 279360,
      "componentType": 5125,
      "count": 69840,
      "type": "SCALAR"
    },
    {
      "bufferView": 2,
      "byteOffset": 629232,
      "componentType": 5126,
      "count": 13106,
      "max": [
        -1.1102157831192017,
        4.671881675720215,
        0.3278103768825531
      ],
      "min": [
        -2.4502551555633545,
        3.5380845069885254,
        -0.5088424682617188
      ],
      "type": "VEC3"
    },
    {
      "bufferView": 2,
      "byteOffset": 786504,
      "componentType": 5126,
      "count": 13106,
      "max": [
        0.9991026520729065,
        0.9999892115592957,
        0.9998695254325867
      ],
      "min": [
        -0.9999783635139465,
        -0.9999900460243225,
        -0.9997671246528625
      ],
      "type": "VEC3"
    },
    {
      "bufferView": 3,
      "byteOffset": 419488,
      "componentType": 5126,
      "count": 13106,
      "max": [
        0.9999904632568359,
        0.9985763430595398,
        0.9997503757476807,
        1.0
      ],
      "min": [
        -0.9998865127563477,
        -0.9898166656494141,
        -0.9999669194221497,
        1.0
      ],
      "type": "VEC4"
    },
    {
      "bufferView": 1,
      "byteOffset": 1048720,
      "componentType": 5126,
      "count": 13106,
      "max": [
        0.9879109859466553,
        0.586369514465332
      ],
      "min": [
        0.012065410614013672,
        0.5719142556190491
      ],
      "type": "VEC2"
    },
    {
      "bufferView": 1,
      "byteOffset": 1153568,
      "componentType": 5126,
      "count": 13106,
      "max": [
        0.9879109859466553,
        0.586369514465332
      ],
      "min": [
        0.012065410614013672,
        0.5719142556190491
      ],
      "type": "VEC2"
    },
    {
      "bufferView": 1,
      "byteOffset": 1258416,
      "componentType": 5126,
      "count": 13106,
      "max": [
        0.9879109859466553,
        0.586369514465332
      ],
      "min": [
        0.012065410614013672,
        0.5719142556190491
      ],
      "type": "VEC2"
    },
    {
      "bufferView": 1,
      "byteOffset": 1363264,
      "componentType": 5126,
      "count": 13106,
      "max": [
        0.9879109859466553,
        0.586369514465332
      ],
      "min": [
        0.012065410614013672,
        0.5719142556190491
      ],
      "type": "VEC2"
    },
    {
      "bufferView": 1,
      "byteOffset": 1468112,
      "componentType": 5126,
      "count": 13106,
      "max": [
        0.9879109859466553,
        0.586369514465332
      ],
      "min": [
        0.012065410614013672,
        0.5719142556190491
      ],
      "type": "VEC2"
    },
    {
      "bufferView": 0,
      "byteOffset": 558720,
      "componentType": 5125,
      "count": 69840,
      "type": "SCALAR"
    },
    {
      "bufferView": 2,
      "byteOffset": 943776,
      "componentType": 5126,
      "count": 13117,
      "max": [
        -1.1179962158203125,
        4.651514530181885,
        0.34470510482788086
      ],
      "min": [
        -2.4635868072509766,
        3.5449657440185547,
        -0.505210816860199
      ],
      "type": "VEC3"
    },
    {
      "bufferView": 2,
      "byteOffset": 1101180,
      "componentType": 5126,
      "count": 13117,
      "max": [
        0.9998899698257446,
        0.9999063611030579,
        0.9995516538619995
      ],
      "min": [
        -0.9991915822029114,
        -0.9999239444732666,
        -0.9998023509979248
      ],
      "type": "VEC3"
    },
    {
      "bufferView": 3,
      "byteOffset": 629184,
      "componentType": 5126,
      "count": 13117,
      "max": [
        0.9999868273735046,
        0.9947593808174133,
        0.9998412728309631,
        1.0
      ],
      "min": [
        -0.9999972581863403,
        -0.9881929159164429,
        -0.9999800324440002,
        1.0
      ],
      "type": "VEC4"
    },
    {
      "bufferView": 1,
      "byteOffset": 1572960,
      "componentType": 5126,
      "count": 13117,
      "max": [
        0.9833588600158691,
        0.5199089646339417
      ],
      "min": [
        0.012065410614013672,
        0.5075188279151917
      ],
      "type": "VEC2"
    },
    {
      "bufferView": 1,
      "byteOffset": 1677896,
      "componentType": 5126,
      "count": 13117,
      "max": [
        0.9833588600158691,
        0.5199089646339417
      ],
      "min": [
        0.012065410614013672,
        0.5075188279151917
      ],
      "type": "VEC2"
    },
    {
      "bufferView": 1,
      "byteOffset": 1782832,
      "componentType": 5126,
      "count": 13117,
      "max": [
        0.9833588600158691,
        0.5199089646339417
      ],
      "min": [
        0.012065410614013672,
        0.5075188279151917
      ],
      "type": "VEC2"
    },
    {
      "bufferView": 1,
      "byteOffset": 1887768,
      "componentType": 5126,
      "count": 13117,
      "max": [
        0.9833588600158691,
        0.5199089646339417
      ],
      "min": [
        0.012065410614013672,
        0.5075188279151917
      ],
      "type": "VEC2"
    },
    {
      "bufferView": 1,
      "byteOffset": 1992704,
      "componentType": 5126,
      "count": 13117,
      "max": [
        0.9833588600158691,
        0.5199089646339417
      ],
      "min": [
        0.012065410614013672,
        0.5075188279151917
      ],
      "type": "VEC2"
    },
    {
      "bufferView": 0,
      "byteOffset": 838080,
      "componentType": 5125,
      "count": 69840,
      "type": "SCALAR"
    },
    {
      "bufferView": 2,
      "byteOffset": 1258584,
      "componentType": 5126,
      "count": 13104,
      "max": [
        -1.1091276407241821,
        4.658580780029297,
        0.34881591796875
      ],
      "min": [
        -2.4882309436798096,
        3.5653257369995117,
        -0.5070371627807617
      ],
      "type": "VEC3"
    },
    {
      "bufferView": 2,
      "byteOffset": 1415832,
      "componentType": 5126,
      "count": 13104,
      "max": [
        0.9998470544815063,
        0.9998865127563477,
        0.9998779296875
      ],
      "min": [
        -0.9999272227287292,
        -0.9999868273735046,
        -0.999751091003418
      ],
      "type": "VEC3"
    },
    {
      "bufferView": 3,
      "byteOffset": 839056,
      "componentType": 5126,
      "count": 13104,
      "max": [
        0.9999545812606812,
        0.9996016621589661,
        0.9999595284461975,
        1.0
      ],
      "min": [
        -0.9997045993804932,
        -0.9921168684959412,
        -0.9997255802154541,
        1.0
      ],
      "type": "VEC4"
    },
    {
      "bufferView": 1,
      "byteOffset": 2097640,
      "componentType": 5126,
      "count": 13104,
      "max": [
        0.9777193069458008,
        0.6606101393699646
      ],
      "min": [
        0.011111348867416382,
        0.6470144391059875
      ],
      "type": "VEC2"
    },
    {
      "bufferView": 1,
      "byteOffset": 2202472,
      "componentType": 5126,
      "count": 13104,
      "max": [
        0.9777193069458008,
        0.6606101393699646
      ],
      "min": [
        0.011111348867416382,
        0.6470144391059875
      ],
      "type": "VEC2"
    },
    {
      "bufferView": 1,
      "byteOffset": 2307304,
      "componentType": 5126,
      "count": 13104,
      "max": [
        0.9777193069458008,
        0.6606101393699646
      ],
      "min": [
        0.011111348867416382,
        0.6470144391059875
      ],
      "type": "VEC2"
    },
    {
      "bufferView": 1,
      "byteOffset": 2412136,
      "componentType": 5126,
      "count": 13104,
      "max": [
        0.9777193069458008,
        0.6606101393699646
      ],
      "min": [
        0.011111348867416382,
        0.6470144391059875
      ],
      "type": "VEC2"
    },
    {
      "bufferView": 1,
      "byteOffset": 2516968,
      "componentType": 5126,
      "count": 13104,
      "max": [
        0.9777193069458008,
        0.6606101393699646
      ],
      "min": [
        0.011111348867416382,
        0.6470144391059875
      ],
      "type": "VEC2"
    },
    {
      "bufferView": 0,
      "byteOffset": 1117440,
      "componentType": 5125,
      "count": 69840,
      "type": "SCALAR"
    },
    {
      "bufferView": 2,
      "byteOffset": 1573080,
      "componentType": 5126,
      "count": 13118,
      "max": [
        -1.114227533340454,
        4.66943359375,
        0.33469974994659424
      ],
      "min": [
        -2.5060079097747803,
        3.5936293601989746,
        -0.5225265026092529
      ],
      "type": "VEC3"
    },
    {
      "bufferView": 2,
      "byteOffset": 1730496,
      "componentType": 5126,
      "count": 13118,
      "max": [
        0.9996150732040405,
        0.9998198747634888,
        0.9997954368591309
      ],
      "min": [
        -0.9998641610145569,
        -0.9999476075172424,
        -0.9998105764389038
      ],
      "type": "VEC3"
    },
    {
      "bufferView": 3,
      "byteOffset": 1048720,
      "componentType": 5126,
      "count": 13118,
      "max": [
        0.9999332427978516,
        0.9757443070411682,
        0.9999923706054688,
        1.0
      ],
      "min": [
        -0.9998500347137451,
        -0.9998636245727539,
        -0.9998617172241211,
        1.0
      ],
      "type": "VEC4"
    },
    {
      "bufferView": 1,
      "byteOffset": 2621800,
      "componentType": 5126,
      "count": 13118,
      "max": [
        0.977137565612793,
        0.5665274262428284
      ],
      "min": [
        0.012065410614013672,
        0.5521631836891174
      ],
      "type": "VEC2"
    },
    {
      "bufferView": 1,
      "byteOffset": 2726744,
      "componentType": 5126,
      "count": 13118,
      "max": [
        0.977137565612793,
        0.5665274262428284
      ],
      "min": [
        0.012065410614013672,
        0.5521631836891174
      ],
      "type": "VEC2"
    },
    {
      "bufferView": 1,
      "byteOffset": 2831688,
      "componentType": 5126,
      "count": 13118,
      "max": [
        0.977137565612793,
        0.5665274262428284
      ],
      "min": [
        0.012065410614013672,
        0.5521631836891174
      ],
      "type": "VEC2"
    },
    {
      "bufferView": 1,
      "byteOffset": 2936632,
      "componentType": 5126,
      "count": 13118,
      "max": [
        0.977137565612793,
        0.5665274262428284
      ],
      "min": [
        0.012065410614013672,
        0.5521631836891174
      ],
      "type": "VEC2"
    },
    {
      "bufferView": 1,
      "byteOffset": 3041576,
      "componentType": 5126,
      "count": 13118,
      "max": [
        0.977137565612793,
        0.5665274262428284
      ],
      "min": [
        0.012065410614013672,
        0.5521631836891174
      ],
      "type": "VEC2"
    },
    {
      "bufferView": 0,
      "byteOffset": 1396800,
      "componentType": 5125,
      "count": 69840,
      "type": "SCALAR"
    },
    {
      "bufferView": 2,
      "byteOffset": 1887912,
      "componentType": 5126,
      "count": 13121,
      "max": [
        -1.0922743082046509,
        4.676403045654297,
        0.3051358163356781
      ],
      "min": [
        -2.5033977031707764,
        3.604915142059326,
        -0.5222576856613159
      ],
      "type": "VEC3"
    },
    {
      "bufferView": 2,
      "byteOffset": 2045364,
      "componentType": 5126,
      "count": 13121,
      "max": [
        0.9997811317443848,
        0.999885082244873,
        0.9998729228973389
      ],
      "min": [
        -0.999594509601593,
        -0.9997847080230713,
        -0.9997673630714417
      ],
      "type": "VEC3"
    },
    {
      "bufferView": 3,
      "byteOffset": 1258608,
      "componentType": 5126,
      "count": 13121,
      "max": [
        0.9999728798866272,
        0.9773781299591064,
        0.9998817443847656,
        1.0
      ],
      "min": [
        -0.9999368786811829,
        -0.9713987708091736,
        -0.999995231628418,
        1.0
      ],
      "type": "VEC4"
    },
    {
      "bufferView": 1,
      "byteOffset": 3146520,
      "componentType": 5126,
      "count": 13121,
      "max": [
        0.9760245084762573,
        0.637349545955658
      ],
      "min": [
        0.012065500020980835,
        0.6134641766548157
      ],
      "type": "VEC2"
    },
    {
      "bufferView": 1,
      "byteOffset": 3251488,
      "componentType": 5126,
      "count": 13121,
      "max": [
        0.9760245084762573,
        0.637349545955658
      ],
      "min": [
        0.012065500020980835,
        0.6134641766548157
      ],
      "type": "VEC2"
    },
    {
      "bufferView": 1,
      "byteOffset": 3356456,
      "componentType": 5126,
      "count": 13121,
      "max": [
        0.9760245084762573,
        0.637349545955658
      ],
      "min": [
        0.012065500020980835,
        0.6134641766548157
      ],
      "type": "VEC2"
    },
    {
      "bufferView": 1,
      "byteOffset": 3461424,
      "componentType": 5126,
      "count": 13121,
      "max": [
        0.9760245084762573,
        0.637349545955658
      ],
      "min": [
        0.012065500020980835,
        0.6134641766548157
      ],
      "type": "VEC2"
    },
    {
      "bufferView": 1,
      "byteOffset": 3566392,
      "componentType": 5126,
      "count": 13121,
      "max": [
        0.9760245084762573,
        0.637349545955658
      ],
      "min": [
        0.012065500020980835,
        0.6134641766548157
      ],
      "type": "VEC2"
    },
    {
      "bufferView": 0,
      "byteOffset": 1676160,
      "componentType": 5125,
      "count": 69840,
      "type": "SCALAR"
    },
    {
      "bufferView": 2,
      "byteOffset": 2202816,
      "componentType": 5126,
      "count": 52083,
      "max": [
        2.3954176902770996,
        5.016569137573242,
        0.37709352374076843
      ],
      "min": [
        -2.1045854091644287,
        0.006074428558349609,
        -0.3795786499977112
      ],
      "type": "VEC3"
    },
    {
      "bufferView": 2,
      "byteOffset": 2827812,
      "componentType": 5126,
      "count": 52083,
      "max": [
        0.999985933303833,
        0.999972403049469,
        0.9999983906745911
      ],
      "min": [
        -0.999965250492096,
        -0.9999498128890991,
        -0.9999999403953552
      ],
      "type": "VEC3"
    },
    {
      "bufferView": 3,
      "byteOffset": 1468544,
      "componentType": 5126,
      "count": 52083,
      "max": [
        0.9999922513961792,
        0.9999745488166809,
        0.7991120219230652,
        1.0
      ],
      "min": [
        -0.9999880194664001,
        -0.9999760389328003,
        -0.7744514346122742,
        1.0
      ],
      "type": "VEC4"
    },
    {
      "bufferView": 1,
      "byteOffset": 3671360,
      "componentType": 5126,
      "count": 52083,
      "max": [
        0.9910488128662109,
        0.9597219824790955
      ],
      "min": [
        0.008763313293457031,
        0.9539248943328857
      ],
      "type": "VEC2"
    },
    {
      "bufferView": 1,
      "byteOffset": 4088024,
      "componentType": 5126,
      "count": 52083,
      "max": [
        0.9910488128662109,
        0.9597219824790955
      ],
      "min": [
        0.008763313293457031,
        0.9539248943328857
      ],
      "type": "VEC2"
    },
    {
      "bufferView": 1,
      "byteOffset": 4504688,
      "componentType": 5126,
      "count": 52083,
      "max": [
        0.9910488128662109,
        0.9597219824790955
      ],
      "min": [
        0.008763313293457031,
        0.9539248943328857
      ],
      "type": "VEC2"
    },
    {
      "bufferView": 1,
      "byteOffset": 4921352,
      "componentType": 5126,
      "count": 52083,
      "max": [
        0.9910488128662109,
        0.9597219824790955
      ],
      "min": [
        0.008763313293457031,
        0.9539248943328857
      ],
      "type": "VEC2"
    },
    {
      "bufferView": 1,
      "byteOffset": 5338016,
      "componentType": 5126,
      "count": 52083,
      "max": [
        0.9910488128662109,
        0.9597219824790955
      ],
      "min": [
        0.008763313293457031,
        0.9539248943328857
      ],
      "type": "VEC2"
    },
    {
      "bufferView": 0,
      "byteOffset": 1955520,
      "componentType": 5125,
      "count": 277728,
      "type": "SCALAR"
    },
    {
      "bufferView": 2,
      "byteOffset": 3452808,
      "componentType": 5126,
      "count": 52083,
      "max": [
        2.3520824909210205,
        5.014725685119629,
        0.3643520176410675
      ],
      "min": [
        -2.1222383975982666,
        -0.010032892227172852,
        -0.36381804943084717
      ],
      "type": "VEC3"
    },
    {
      "bufferView": 2,
      "byteOffset": 4077804,
      "componentType": 5126,
      "count": 52083,
      "max": [
        0.9999341368675232,
        0.9999746680259705,
        0.9999998807907104
      ],
      "min": [
        -0.9999968409538269,
        -0.9999825954437256,
        -0.999997615814209
      ],
      "type": "VEC3"
    },
    {
      "bufferView": 3,
      "byteOffset": 2301872,
      "componentType": 5126,
      "count": 52083,
      "max": [
        0.9999974966049194,
        0.9999672770500183,
        0.8001484870910645,
        1.0
      ],
      "min": [
        -0.9999907612800598,
        -0.99998939037323,
        -0.789110541343689,
        1.0
      ],
      "type": "VEC4"
    },
    {
      "bufferView": 1,
      "byteOffset": 5754680,
      "componentType": 5126,
      "count": 52083,
      "max": [
        0.9895772933959961,
        0.98154616355896
      ],
      "min": [
        0.008763313293457031,
        0.9749267101287842
      ],
      "type": "VEC2"
    },
    {
      "bufferView": 1,
      "byteOffset": 6171344,
      "componentType": 5126,
      "count": 52083,
      "max": [
        0.9895772933959961,
        0.98154616355896
      ],
      "min": [
        0.008763313293457031,
        0.9749267101287842
      ],
      "type": "VEC2"
    },
    {
      "bufferView": 1,
      "byteOffset": 6588008,
      "componentType": 5126,
      "count": 52083,
      "max": [
        0.9895772933959961,
        0.98154616355896
      ],
      "min": [
        0.008763313293457031,
        0.9749267101287842
      ],
      "type": "VEC2"
    },
    {
      "bufferView": 1,
      "byteOffset": 7004672,
      "componentType": 5126,
      "count": 52083,
      "max": [
        0.9895772933959961,
        0.98154616355896
      ],
      "min": [
        0.008763313293457031,
        0.9749267101287842
      ],
      "type": "VEC2"
    },
    {
      "bufferView": 1,
      "byteOffset": 7421336,
      "componentType": 5126,
      "count": 52083,
      "max": [
        0.9895772933959961,
        0.98154616355896
      ],
      "min": [
        0.008763313293457031,
        0.9749267101287842
      ],
      "type": "VEC2"
    },
    {
      "bufferView": 0,
      "byteOffset": 3066432,
      "componentType": 5125,
      "count": 277728,
      "type": "SCALAR"
    },
    {
      "bufferView": 2,
      "byteOffset": 4702800,
      "componentType": 5126,
      "count": 52083,
      "max": [
        2.3912734985351563,
        4.996883869171143,
        0.339459091424942
      ],
      "min": [
        -2.1370842456817627,
        -0.014446258544921875,
        -0.3754625916481018
      ],
      "type": "VEC3"
    },
    {
      "bufferView": 2,
      "byteOffset": 5327796,
      "componentType": 5126,
      "count": 52083,
      "max": [
        0.9999053478240967,
        0.9999875426292419,
        0.9999978542327881
      ],
      "min": [
        -0.9999274611473083,
        -0.9999426603317261,
        -0.9999934434890747
      ],
      "type": "VEC3"
    },
    {
      "bufferView": 3,
      "byteOffset": 3135200,
      "componentType": 5126,
      "count": 52083,
      "max": [
        0.9999446272850037,
        0.9999138116836548,
        0.768143355846405,
        1.0
      ],
      "min": [
        -0.9999969005584717,
        -0.9999198913574219,
        -0.745384693145752,
        1.0
      ],
      "type": "VEC4"
    },
    {
      "bufferView": 1,
      "byteOffset": 7838000,
      "componentType": 5126,
      "count": 52083,
      "max": [
        0.9906883239746094,
        0.8651921153068542
      ],
      "min": [
        0.011475563049316406,
        0.8614749908447266
      ],
      "type": "VEC2"
    },
    {
      "bufferView": 1,
      "byteOffset": 8254664,
      "componentType": 5126,
      "count": 52083,
      "max": [
        0.9906883239746094,
        0.8651921153068542
      ],
      "min": [
        0.011475563049316406,
        0.8614749908447266
      ],
      "type": "VEC2"
    },
    {
      "bufferView": 1,
      "byteOffset": 8671328,
      "componentType": 5126,
      "count": 52083,
      "max": [
        0.9906883239746094,
        0.8651921153068542
      ],
      "min": [
        0.011475563049316406,
        0.8614749908447266
      ],
      "type": "VEC2"
    },
    {
      "bufferView": 1,
      "byteOffset": 9087992,
      "componentType": 5126,
      "count": 52083,
      "max": [
        0.9906883239746094,
        0.8651921153068542
      ],
      "min": [
        0.011475563049316406,
        0.8614749908447266
      ],
      "type": "VEC2"
    },
    {
      "bufferView": 1,
      "byteOffset": 9504656,
      "componentType": 5126,
      "count": 52083,
      "max": [
        0.9906883239746094,
        0.8651921153068542
      ],
      "min": [
        0.011475563049316406,
        0.8614749908447266
      ],
      "type": "VEC2"
    },
    {
      "bufferView": 0,
      "byteOffset": 4177344,
      "componentType": 5125,
      "count": 277728,
      "type": "SCALAR"
    },
    {
      "bufferView": 2,
      "byteOffset": 5952792,
      "componentType": 5126,
      "count": 52083,
      "max": [
        2.4186761379241943,
        4.9693603515625,
        0.30383428931236267
      ],
      "min": [
        -2.145130157470703,
        -0.007529497146606445,
        -0.3615979254245758
      ],
      "type": "VEC3"
    },
    {
      "bufferView": 2,
      "byteOffset": 6577788,
      "componentType": 5126,
      "count": 52083,
      "max": [
        0.9999685883522034,
        0.9999774694442749,
        0.9999988675117493
      ],
      "min": [
        -0.999937117099762,
        -0.9999698996543884,
        -0.9999990463256836
      ],
      "type": "VEC3"
    },
    {
      "bufferView": 3,
      "byteOffset": 3968528,
      "componentType": 5126,
      "count": 52083,
      "max": [
        0.9999848008155823,
        0.9999640583992004,
        0.7496054768562317,
        1.0
      ],
      "min": [
        -0.9999905228614807,
        -0.9999964237213135,
        -0.7849963903427124,
        1.0
      ],
      "type": "VEC4"
    },
    {
      "bufferView": 1,
      "byteOffset": 9921320,
      "componentType": 5126,
      "count": 52083,
      "max": [
        0.9910402297973633,
        0.9414381980895996
      ],
      "min": [
        0.012377738952636719,
        0.9360668659210205
      ],
      "type": "VEC2"
    },
    {
      "bufferView": 1,
      "byteOffset": 10337984,
      "componentType": 5126,
      "count": 52083,
      "max": [
        0.9910402297973633,
        0.9414381980895996
      ],
      "min": [
        0.012377738952636719,
        0.9360668659210205
      ],
      "type": "VEC2"
    },
    {
      "bufferView": 1,
      "byteOffset": 10754648,
      "componentType": 5126,
      "count": 52083,
      "max": [
        0.9910402297973633,
        0.9414381980895996
      ],
      "min": [
        0.012377738952636719,
        0.9360668659210205
      ],
      "type": "VEC2"
    },
    {
      "bufferView": 1,
      "byteOffset": 11171312,
      "componentType": 5126,
      "count": 52083,
      "max": [
        0.9910402297973633,
        0.9414381980895996
      ],
      "min": [
        0.012377738952636719,
        0.9360668659210205
      ],
      "type": "VEC2"
    },
    {
      "bufferView": 1,
      "byteOffset": 11587976,
      "componentType": 5126,
      "count": 52083,
      "max": [
        0.9910402297973633,
        0.9414381980895996
      ],
      "min": [
        0.012377738952636719,
        0.9360668659210205
      ],
      "type": "VEC2"
    },
    {
      "bufferView": 0,
      "byteOffset": 5288256,
      "componentType": 5125,
      "count": 277728,
      "type": "SCALAR"
    },
    {
      "bufferView": 2,
      "byteOffset": 7202784,
      "componentType": 5126,
      "count": 52083,
      "max": [
        2.4360899925231934,
        4.943950653076172,
        0.301935613155365
      ],
      "min": [
        -2.145815134048462,
        0.010049819946289063,
        -0.3340170085430145
      ],
      "type": "VEC3"
    },
    {
      "bufferView": 2,
      "byteOffset": 7827780,
      "componentType": 5126,
      "count": 52083,
      "max": [
        0.999679684638977,
        0.9999597072601318,
        0.9999995231628418
      ],
      "min": [
        -0.9996680617332458,
        -0.9999702572822571,
        -0.9999999403953552
      ],
      "type": "VEC3"
    },
    {
      "bufferView": 3,
      "byteOffset": 4801856,
      "componentType": 5126,
      "count": 52083,
      "max": [
        0.999973714351654,
        0.9999989867210388,
        0.7699678540229797,
        1.0
      ],
      "min": [
        -0.9999880194664001,
        -0.9999900460243225,
        -0.7980716228485107,
        1.0
      ],
      "type": "VEC4"
    },
    {
      "bufferView": 1,
      "byteOffset": 12004640,
      "componentType": 5126,
      "count": 52083,
      "max": [
        0.9883813858032227,
        0.8832966089248657
      ],
      "min": [
        0.008763313293457031,
        0.8790741562843323
      ],
      "type": "VEC2"
    },
    {
      "bufferView": 1,
      "byteOffset": 12421304,
      "componentType": 5126,
      "count": 52083,
      "max": [
        0.9883813858032227,
        0.8832966089248657
      ],
      "min": [
        0.008763313293457031,
        0.8790741562843323
      ],
      "type": "VEC2"
    },
    {
      "bufferView": 1,
      "byteOffset": 12837968,
      "componentType": 5126,
      "count": 52083,
      "max": [
        0.9883813858032227,
        0.8832966089248657
      ],
      "min": [
        0.008763313293457031,
        0.8790741562843323
      ],
      "type": "VEC2"
    },
    {
      "bufferView": 1,
      "byteOffset": 13254632,
      "componentType": 5126,
      "count": 52083,
      "max": [
        0.9883813858032227,
        0.8832966089248657
      ],
      "min": [
        0.008763313293457031,
        0.8790741562843323
      ],
      "type": "VEC2"
    },
    {
      "bufferView": 1,
      "byteOffset": 13671296,
      "componentType": 5126,
      "count": 52083,
      "max": [
        0.9883813858032227,
        0.8832966089248657
      ],
      "min": [
        0.008763313293457031,
        0.8790741562843323
      ],
      "type": "VEC2"
    },
    {
      "bufferView": 0,
      "byteOffset": 6399168,
      "componentType": 5125,
      "count": 277728,
      "type": "SCALAR"
    },
    {
      "bufferView": 2,
      "byteOffset": 8452776,
      "componentType": 5126,
      "count": 52083,
      "max": [
        2.4390957355499268,
        4.977628231048584,
        0.34209418296813965
      ],
      "min": [
        -2.1389758586883545,
        0.03455829620361328,
        -0.3670071065425873
      ],
      "type": "VEC3"
    },
    {
      "bufferView": 2,
      "byteOffset": 9077772,
      "componentType": 5126,
      "count": 52083,
      "max": [
        0.999826192855835,
        0.9999532699584961,
        0.9999996423721313
      ],
      "min": [
        -0.9999974370002747,
        -0.9999904036521912,
        -0.9999998807907104
      ],
      "type": "VEC3"
    },
    {
      "bufferView": 3,
      "byteOffset": 5635184,
      "componentType": 5126,
      "count": 52083,
      "max": [
        0.9999871850013733,
        0.9999958276748657,
        0.7675057649612427,
        1.0
      ],
      "min": [
        -0.9999904632568359,
        -0.9999801516532898,
        -0.797808825969696,
        1.0
      ],
      "type": "VEC4"
    },
    {
      "bufferView": 1,
      "byteOffset": 14087960,
      "componentType": 5126,
      "count": 52083,
      "max": [
        0.9900789260864258,
        0.9045171141624451
      ],
      "min": [
        0.008763313293457031,
        0.8993711471557617
      ],
      "type": "VEC2"
    },
    {
      "bufferView": 1,
      "byteOffset": 14504624,
      "componentType": 5126,
      "count": 52083,
      "max": [
        0.9900789260864258,
        0.9045171141624451
      ],
      "min": [
        0.008763313293457031,
        0.8993711471557617
      ],
      "type": "VEC2"
    },
    {
      "bufferView": 1,
      "byteOffset": 14921288,
      "componentType": 5126,
      "count": 52083,
      "max": [
        0.9900789260864258,
        0.9045171141624451
      ],
      "min": [
        0.008763313293457031,
        0.8993711471557617
      ],
      "type": "VEC2"
    },
    {
      "bufferView": 1,
      "byteOffset": 15337952,
      "componentType": 5126,
      "count": 52083,
      "max": [
        0.9900789260864258,
        0.9045171141624451
      ],
      "min": [
        0.008763313293457031,
        0.8993711471557617
      ],
      "type": "VEC2"
    },
    {
      "bufferView": 1,
      "byteOffset": 15754616,
      "componentType": 5126,
      "count": 52083,
      "max": [
        0.9900789260864258,
        0.9045171141624451
      ],
      "min": [
        0.008763313293457031,
        0.8993711471557617
      ],
      "type": "VEC2"
    },
    {
      "bufferView": 0,
      "byteOffset": 7510080,
      "componentType": 5125,
      "count": 277728,
      "type": "SCALAR"
    },
    {
      "bufferView": 2,
      "byteOffset": 9702768,
      "componentType": 5126,
      "count": 52083,
      "max": [
        2.424302577972412,
        5.001744270324707,
        0.3671254813671112
      ],
      "min": [
        -2.124600887298584,
        0.029947996139526367,
        -0.38559919595718384
      ],
      "type": "VEC3"
    },
    {
      "bufferView": 2,
      "byteOffset": 10327764,
      "componentType": 5126,
      "count": 52083,
      "max": [
        0.9999661445617676,
        0.9999748468399048,
        0.9999987483024597
      ],
      "min": [
        -0.9999396204948425,
        -0.9999890327453613,
        -1.0
      ],
      "type": "VEC3"
    },
    {
      "bufferView": 3,
      "byteOffset": 6468512,
      "componentType": 5126,
      "count": 52083,
      "max": [
        0.9999536275863647,
        0.9999489784240723,
        0.741521418094635,
        1.0
      ],
      "min": [
        -0.9999833703041077,
        -0.9999858140945435,
        -0.7896547317504883,
        1.0
      ],
      "type": "VEC4"
    },
    {
      "bufferView": 1,
      "byteOffset": 16171280,
      "componentType": 5126,
      "count": 52083,
      "max": [
        0.991236686706543,
        0.9223018288612366
      ],
      "min": [
        0.008763313293457031,
        0.91706383228302
      ],
      "type": "VEC2"
    },
    {
      "bufferView": 1,
      "byteOffset": 16587944,
      "componentType": 5126,
      "count": 52083,
      "max": [
        0.991236686706543,
        0.9223018288612366
      ],
      "min": [
        0.008763313293457031,
        0.91706383228302
      ],
      "type": "VEC2"
    },
    {
      "bufferView": 1,
      "byteOffset": 17004608,
      "componentType": 5126,
      "count": 52083,
      "max": [
        0.991236686706543,
        0.9223018288612366
      ],
      "min": [
        0.008763313293457031,
        0.91706383228302
      ],
      "type": "VEC2"
    },
    {
      "bufferView": 1,
      "byteOffset": 17421272,
      "componentType": 5126,
      "count": 52083,
      "max": [
        0.991236686706543,
        0.9223018288612366
      ],
      "min": [
        0.008763313293457031,
        0.91706383228302
      ],
      "type": "VEC2"
    },
    {
      "bufferView": 1,
      "byteOffset": 17837936,
      "componentType": 5126,
      "count": 52083,
      "max": [
        0.991236686706543,
        0.9223018288612366
      ],
      "min": [
        0.008763313293457031,
        0.91706383228302
      ],
      "type": "VEC2"
    },
    {
      "bufferView": 0,
      "byteOffset": 8620992,
      "componentType": 5125,
      "count": 277728,
      "type": "SCALAR"
    }
  ],
  "asset": {
    "extras": {
      "author": "Mahbubur Rahman (https://sketchfab.com/mahbub9933)",
      "license": "CC-BY-4.0 (http://creativecommons.org/licenses/by/4.0/)",
      "source": "https://sketchfab.com/3d-models/rope-eed322ea34274e0da1454c635c667682",
      "title": "Rope"
    },
    "generator": "Sketchfab-16.61.0",
    "version": "2.0"
  },
  "bufferViews": [
    {
      "buffer": 0,
      "byteLength": 9731904,
      "name": "floatBufferViews",
      "target": 34963
    },
    {
      "buffer": 0,
      "byteLength": 18254600,
      "byteOffset": 9731904,
      "byteStride": 8,
      "name": "floatBufferViews",
      "target": 34962
    },
    {
      "buffer": 0,
      "byteLength": 10952760,
      "byteOffset": 27986504,
      "byteStride": 12,
      "name": "floatBufferViews",
      "target": 34962
    },
    {
      "buffer": 0,
      "byteLength": 7301840,
      "byteOffset": 38939264,
      "byteStride": 16,
      "name": "floatBufferViews",
      "target": 34962
    }
  ],
  "buffers": [
    {
      "byteLength": 46241104,
      "uri": "scene.bin"
    }
  ],
  "images": [
    {
      "uri": "textures/Rope_1001_baseColor.png"
    },
    {
      "uri": "textures/Rope_1001_metallicRoughness.png"
    },
    {
      "uri": "textures/Rope_1001_normal.png"
    }
  ],
  "materials": [
    {
      "name": "Rope_1001",
      "normalTexture": {
        "index": 2
      },
      "occlusionTexture": {
        "index": 1
      },
      "pbrMetallicRoughness": {
        "baseColorTexture": {
          "index": 0
        },
        "metallicRoughnessTexture": {
          "index": 1
        }
      }
    }
  ],
  "meshes": [
    {
      "name": "Object_0",
      "primitives": [
        {
          "attributes": {
            "NORMAL": 1,
            "POSITION": 0,
            "TANGENT": 2,
            "TEXCOORD_0": 3,
            "TEXCOORD_1": 4,
            "TEXCOORD_2": 5,
            "TEXCOORD_3": 6,
            "TEXCOORD_4": 7
          },
          "indices": 8,
          "material": 0,
          "mode": 4
        }
      ]
    },
    {
      "name": "Object_1",
      "primitives": [
        {
          "attributes": {
            "NORMAL": 10,
            "POSITION": 9,
            "TANGENT": 11,
            "TEXCOORD_0": 12,
            "TEXCOORD_1": 13,
            "TEXCOORD_2": 14,
            "TEXCOORD_3": 15,
            "TEXCOORD_4": 16
          },
          "indices": 17,
          "material": 0,
          "mode": 4
        }
      ]
    },
    {
      "name": "Object_2",
      "primitives": [
        {
          "attributes": {
            "NORMAL": 19,
            "POSITION": 18,
            "TANGENT": 20,
            "TEXCOORD_0": 21,
            "TEXCOORD_1": 22,
            "TEXCOORD_2": 23,
            "TEXCOORD_3": 24,
            "TEXCOORD_4": 25
          },
          "indices": 26,
          "material": 0,
          "mode": 4
        }
      ]
    },
    {
      "name": "Object_3",
      "primitives": [
        {
          "attributes": {
            "NORMAL": 28,
            "POSITION": 27,
            "TANGENT": 29,
            "TEXCOORD_0": 30,
            "TEXCOORD_1": 31,
            "TEXCOORD_2": 32,
            "TEXCOORD_3": 33,
            "TEXCOORD_4": 34
          },
          "indices": 35,
          "material": 0,
          "mode": 4
        }
      ]
    },
    {
      "name": "Object_4",
      "primitives": [
        {
          "attributes": {
            "NORMAL": 37,
            "POSITION": 36,
            "TANGENT": 38,
            "TEXCOORD_0": 39,
            "TEXCOORD_1": 40,
            "TEXCOORD_2": 41,
            "TEXCOORD_3": 42,
            "TEXCOORD_4": 43
          },
          "indices": 44,
          "material": 0,
          "mode": 4
        }
      ]
    },
    {
      "name": "Object_5",
      "primitives": [
        {
          "attributes": {
            "NORMAL": 46,
            "POSITION": 45,
            "TANGENT": 47,
            "TEXCOORD_0": 48,
            "TEXCOORD_1": 49,
            "TEXCOORD_2": 50,
            "TEXCOORD_3": 51,
            "TEXCOORD_4": 52
          },
          "indices": 53,
          "material": 0,
          "mode": 4
        }
      ]
    },
    {
      "name": "Object_6",
      "primitives": [
        {
          "attributes": {
            "NORMAL": 55,
            "POSITION": 54,
            "TANGENT": 56,
            "TEXCOORD_0": 57,
            "TEXCOORD_1": 58,
            "TEXCOORD_2": 59,
            "TEXCOORD_3": 60,
            "TEXCOORD_4": 61
          },
          "indices": 62,
          "material": 0,
          "mode": 4
        }
      ]
    },
    {
      "name": "Object_7",
      "primitives": [
        {
          "attributes": {
            "NORMAL": 64,
            "POSITION": 63,
            "TANGENT": 65,
            "TEXCOORD_0": 66,
            "TEXCOORD_1": 67,
            "TEXCOORD_2": 68,
            "TEXCOORD_3": 69,
            "TEXCOORD_4": 70
          },
          "indices": 71,
          "material": 0,
          "mode": 4
        }
      ]
    },
    {
      "name": "Object_8",
      "primitives": [
        {
          "attributes": {
            "NORMAL": 73,
            "POSITION": 72,
            "TANGENT": 74,
            "TEXCOORD_0": 75,
            "TEXCOORD_1": 76,
            "TEXCOORD_2": 77,
            "TEXCOORD_3": 78,
            "TEXCOORD_4": 79
          },
          "indices": 80,
          "material": 0,
          "mode": 4
        }
      ]
    },
    {
      "name": "Object_9",
      "primitives": [
        {
          "attributes": {
            "NORMAL": 82,
            "POSITION": 81,
            "TANGENT": 83,
            "TEXCOORD_0": 84,
            "TEXCOORD_1": 85,
            "TEXCOORD_2": 86,
            "TEXCOORD_3": 87,
            "TEXCOORD_4": 88
          },
          "indices": 89,
          "material": 0,
          "mode": 4
        }
      ]
    },
    {
      "name": "Object_10",
      "primitives": [
        {
          "attributes": {
            "NORMAL": 91,
            "POSITION": 90,
            "TANGENT": 92,
            "TEXCOORD_0": 93,
            "TEXCOORD_1": 94,
            "TEXCOORD_2": 95,
            "TEXCOORD_3": 96,
            "TEXCOORD_4": 97
          },
          "indices": 98,
          "material": 0,
          "mode": 4
        }
      ]
    },
    {
      "name": "Object_11",
      "primitives": [
        {
          "attributes": {
            "NORMAL": 100,
            "POSITION": 99,
            "TANGENT": 101,
            "TEXCOORD_0": 102,
            "TEXCOORD_1": 103,
            "TEXCOORD_2": 104,
            "TEXCOORD_3": 105,
            "TEXCOORD_4": 106
          },
          "indices": 107,
          "material": 0,
          "mode": 4
        }
      ]
    },
    {
      "name": "Object_12",
      "primitives": [
        {
          "attributes": {
            "NORMAL": 109,
            "POSITION": 108,
            "TANGENT": 110,
            "TEXCOORD_0": 111,
            "TEXCOORD_1": 112,
            "TEXCOORD_2": 113,
            "TEXCOORD_3": 114,
            "TEXCOORD_4": 115
          },
          "indices": 116,
          "material": 0,
          "mode": 4
        }
      ]
    },
    {
      "name": "Object_13",
      "primitives": [
        {
          "attributes": {
            "NORMAL": 118,
            "POSITION": 117,
            "TANGENT": 119,
            "TEXCOORD_0": 120,
            "TEXCOORD_1": 121,
            "TEXCOORD_2": 122,
            "TEXCOORD_3": 123,
            "TEXCOORD_4": 124
          },
          "indices": 125,
          "material": 0,
          "mode": 4
        }
      ]
    }
  ],
  "nodes": [
    {
      "children": [
        1
      ],
      "matrix": [
        1.0,
        0.0,
        0.0,
        0.0,
        0.0,
        2.220446049250313e-16,
        -1.0,
        0.0,
        0.0,
        1.0,
        2.220446049250313e-16,
        0.0,
        0.0,
        0.0,
        0.0,
        1.0
      ],
      "name": "Sketchfab_model"
    },
    {
      "children": [
        2
      ],
      "name": "root"
    },
    {
      "children": [
        3
      ],
      "matrix": [
        1.0,
        0.0,
        0.0,
        0.0,
        0.0,
        2.220446049250313e-16,
        1.0,
        0.0,
        0.0,
        -1.0,
        2.220446049250313e-16,
        0.0,
        0.0,
        0.0,
        0.0,
        1.0
      ],
      "name": "GLTF_SceneRootNode"
    },
    {
      "children": [
        4
      ],
      "name": "RootNode_0"
    },
    {
      "children": [
        5,
        27
      ],
      "name": "Rope_1"
    },
    {
      "children": [
        6,
        9,
        12,
        15,
        18,
        21,
        24
      ],
      "name": "sweep2_2"
    },
    {
      "children": [
        7
      ],
      "name": "polySurface8_3"
    },
    {
      "children": [
        8
      ],
      "name": "polySurface8_4"
    },
    {
      "mesh": 0,
      "name": "Object_8"
    },
    {
      "children": [
        10
      ],
      "name": "polySurface9_5"
    },
    {
      "children": [
        11
      ],
      "name": "polySurface9_6"
    },
    {
      "mesh": 1,
      "name": "Object_11"
    },
    {
      "children": [
        13
      ],
      "name": "polySurface10_7"
    },
    {
      "children": [
        14
      ],
      "name": "polySurface10_8"
    },
    {
      "mesh": 2,
      "name": "Object_14"
    },
    {
      "children": [
        16
      ],
      "name": "polySurface11_9"
    },
    {
      "children": [
        17
      ],
      "name": "polySurface11_10"
    },
    {
      "mesh": 3,
      "name": "Object_17"
    },
    {
      "children": [
        19
      ],
      "name": "polySurface12_11"
    },
    {
      "children": [
        20
      ],
      "name": "polySurface12_12"
    },
    {
      "mesh": 4,
      "name": "Object_20"
    },
    {
      "children": [
        22
      ],
      "name": "polySurface13_13"
    },
    {
      "children": [
        23
      ],
      "name": "polySurface13_14"
    },
    {
      "mesh": 5,
      "name": "Object_23"
    },
    {
      "children": [
        25
      ],
      "name": "polySurface14_15"
    },
    {
      "children": [
        26
      ],
      "name": "polySurface14_16"
    },
    {
      "mesh": 6,
      "name": "Object_26"
    },
    {
      "children": [
        28,
        31,
        34,
        37,
        40,
        43,
        46
      ],
      "name": "sweep1_17"
    },
    {
      "children": [
        29
      ],
      "name": "polySurface1_18"
    },
    {
      "children": [
        30
      ],
      "name": "polySurface1_19"
    },
    {
      "mesh": 7,
      "name": "Object_30"
    },
    {
      "children": [
        32
      ],
      "name": "polySurface2_20"
    },
    {
      "children": [
        33
      ],
      "name": "polySurface2_21"
    },
    {
      "mesh": 8,
      "name": "Object_33"
    },
    {
      "children": [
        35
      ],
      "name": "polySurface3_22"
    },
    {
      "children": [
        36
      ],
      "name": "polySurface3_23"
    },
    {
      "mesh": 9,
      "name": "Object_36"
    },
    {
      "children": [
        38
      ],
      "name": "polySurface4_24"
    },
    {
      "children": [
        39
      ],
      "name": "polySurface4_25"
    },
    {
      "mesh": 10,
      "name": "Object_39"
    },
    {
      "children": [
        41
      ],
      "name": "polySurface5_26"
    },
    {
      "children": [
        42
      ],
      "name": "polySurface5_27"
    },
    {
      "mesh": 11,
      "name": "Object_42"
    },
    {
      "children": [
        44
      ],
      "name": "polySurface6_28"
    },
    {
      "children": [
        45
      ],
      "name": "polySurface6_29"
    },
    {
      "mesh": 12,
      "name": "Object_45"
    },
    {
      "children": [
        47
      ],
      "name": "polySurface7_30"
    },
    {
      "children": [
        48
      ],
      "name": "polySurface7_31"
    },
    {
      "mesh": 13,
      "name": "Object_48"
    }
  ],
  "samplers": [
    {
      "magFilter": 9729,
      "minFilter": 9987,
      "wrapS": 10497,
      "wrapT": 10497
    }
  ],
  "scene": 0,
  "scenes": [
    {
      "name": "Sketchfab_Scene",
      "nodes": [
        0
      ]
    }
  ],
  "textures": [
    {
      "sampler": 0,
      "source": 0
    },
    {
      "sampler": 0,
      "source": 1
    },
    {
      "sampler": 0,
      "source": 2
    }
  ]
}
